<?xml version="1.0" encoding="UTF-8" standalone="no"?>
<!DOCTYPE svg PUBLIC "-//W3C//DTD SVG 1.1//EN" "http://www.w3.org/Graphics/SVG/1.1/DTD/svg11.dtd">
<svg width="100%" height="100%" viewBox="0 0 120 120" version="1.1" xmlns="http://www.w3.org/2000/svg" xmlns:xlink="http://www.w3.org/1999/xlink" xml:space="preserve" style="fill-rule:evenodd;clip-rule:evenodd;stroke-linejoin:round;stroke-miterlimit:1.41421;">
    <g transform="matrix(0.246545,0,0,0.39348,45.4896,31.8043)">
        <rect x="-157.199" y="-59.266" width="430.512" height="266.652" style="fill:rgb(235,235,235);"/>
    </g>
    <g>
        <g transform="matrix(0.359554,0,0,0.359554,-225.567,-212.052)">
            <path d="M751.389,667.057C751.227,667.182 751.066,667.307 750.904,667.433C751.066,667.307 751.227,667.182 751.389,667.057M773.494,613.37C772.924,615.159 772.334,616.944 771.748,618.729C771.369,619.878 770.896,620.999 770.455,622.124C770.459,622.112 770.463,622.104 770.467,622.093C769.26,624.682 767.982,627.202 766.529,629.663C765.219,631.888 763.818,655.027 762.275,657.096C761.503,658.026 760.713,658.917 759.806,659.722C758.971,660.46 758.096,661.152 757.236,661.859C755.473,663.306 753.886,664.955 752.169,666.453C752.004,666.581 751.839,666.709 751.674,666.837C750.442,667.688 749.206,668.577 747.869,669.257C747.111,669.64 746.365,670.081 745.588,670.421C744.946,670.703 744.306,670.985 743.668,671.269C742.017,671.898 740.368,672.527 738.666,672.999C736.607,673.574 734.549,674.136 732.474,674.648C728.549,675.62 724.588,676.441 720.65,677.367C716.865,678.257 713.111,679.331 709.303,680.148C705.58,680.945 701.826,681.585 698.178,682.699C694.662,683.769 691.185,684.972 687.724,686.203C684.603,687.316 681.439,688.413 678.564,690.085C678.553,690.093 678.56,690.113 678.576,690.109C680.472,689.67 682.397,689.372 684.326,689.102C688.104,688.642 691.905,688.387 695.693,688.062C699.541,687.726 703.389,687.355 707.236,687.007C715.435,686.265 723.603,685.218 731.678,683.578C735.674,682.765 739.611,681.714 743.431,680.288C745.533,679.507 747.564,678.535 749.576,677.546C751.474,676.617 753.322,675.437 754.971,674.12C755.791,673.464 756.58,672.808 757.346,672.089C758.142,671.335 758.842,670.437 759.463,669.535C760.381,668.206 761.31,666.831 762.01,665.374C762.81,663.718 763.314,661.995 763.877,660.249C764.49,658.339 765.197,656.453 765.904,654.574C766.65,652.593 767.435,629.643 768.256,627.694C768.248,627.714 768.24,627.733 768.232,627.757C769.119,625.792 770.119,623.835 770.853,621.807C771.252,620.714 771.662,619.624 771.998,618.51C772.514,616.8 773.025,615.093 773.517,613.378C773.52,613.368 773.512,613.362 773.504,613.362C773.5,613.362 773.495,613.364 773.494,613.37" style="fill-rule:nonzero;stroke:black;stroke-width:5.56px;"/>
        </g>
        <g transform="matrix(0.359554,0,0,0.359554,-225.567,-212.052)">
            <path d="M940.467,710.544C940.458,710.543 940.449,710.542 940.44,710.54C940.45,710.544 940.457,710.544 940.467,710.544M847.518,682.713C847.537,682.86 847.557,683.006 847.576,683.153C847.547,683.007 847.528,682.86 847.518,682.713M847.551,682.177C847.554,682.178 847.556,682.18 847.558,682.181C847.695,682.358 847.831,682.535 847.967,682.712C847.814,682.546 847.675,682.37 847.55,682.186C847.55,682.183 847.551,682.179 847.551,682.177M848.389,647.419C847.682,652.153 846.967,656.88 845.963,661.567C845.123,665.482 844.166,669.436 842.673,673.161C841.739,675.187 840.669,677.15 839.447,679.017C839.065,679.603 838.717,680.271 838.51,680.935C838.311,681.579 838.08,682.521 838.119,683.153C838.174,684.044 838.287,684.911 838.494,685.778C838.717,686.704 839.322,687.685 839.842,688.474C840.776,689.907 842.033,691.056 843.373,692.095C844.619,693.064 845.881,693.915 847.248,694.7C849.772,696.157 852.518,697.286 855.221,698.364C857.748,699.368 860.315,700.286 862.877,701.2C867.854,702.978 872.936,704.431 878.076,705.634C883.045,706.798 888.088,707.528 893.112,708.376C897.248,709.071 901.385,709.548 905.58,709.665C909.483,709.771 913.397,709.646 917.299,709.603C921.049,709.564 924.807,709.423 928.553,709.556C932.537,709.7 936.518,710.024 940.471,710.544L940.467,710.544C940.732,710.582 941,710.62 941.264,710.657C941.279,710.661 941.283,710.642 941.268,710.634C941.076,710.552 940.881,710.47 940.686,710.388L940.709,710.399C938.432,709.431 936.201,708.329 933.901,707.423C931.397,706.435 928.897,705.54 926.311,704.774C923.877,704.052 921.385,703.489 918.924,702.88C916.248,702.216 913.565,701.591 910.877,700.966C908.432,700.399 906.041,699.54 903.631,698.841C901.342,698.177 899.022,697.653 896.717,697.056C891.701,695.755 886.776,694.118 881.815,692.63C876.596,691.06 871.315,689.657 866.014,688.372C861.008,687.16 855.932,686.119 851.112,684.284C850.001,683.737 848.94,683.135 847.925,682.432C847.803,682.322 847.683,682.21 847.565,682.093C847.781,680.778 848.003,679.466 848.088,678.13C848.166,676.864 848.065,675.583 848.022,674.317C847.928,671.427 848.123,668.528 848.244,665.642C848.498,659.567 848.533,653.497 848.416,647.419C848.416,647.413 848.409,647.409 848.403,647.409C848.397,647.409 848.391,647.412 848.389,647.419" style="fill-rule:nonzero;stroke:black;stroke-width:5.56px;"/>
        </g>
        <g transform="matrix(0.359554,0,0,0.359554,-225.567,-212.052)">
            <path d="M814.569,643.642C814.018,646.154 813.452,648.662 812.964,651.189C812.749,652.314 812.413,653.431 812.159,654.552C811.94,655.513 811.706,656.47 811.479,657.427C810.499,661.576 809.518,665.763 808.928,669.986C808.924,669.997 808.944,670.009 808.952,669.994C810.749,666.122 812.1,662.021 813.12,657.88C814.264,653.224 814.553,648.419 814.596,643.642C814.596,643.636 814.59,643.631 814.583,643.631C814.577,643.631 814.571,643.634 814.569,643.642" style="fill-rule:nonzero;stroke:black;stroke-width:5.56px;"/>
        </g>
        <g transform="matrix(0.359554,0,0,0.359554,-225.567,-212.052)">
            <path d="M814.609,657.34C814.609,657.346 814.608,657.353 814.608,657.359C814.608,657.353 814.609,657.347 814.609,657.34M815.628,644.097C815.366,646.558 815.139,649.015 814.971,651.484C814.836,653.426 814.746,655.371 814.611,657.313C814.431,658.397 814.233,659.45 813.952,660.511C813.695,661.474 813.337,662.398 812.952,663.317C812.678,663.895 812.383,664.464 812.086,665.03C811.989,663.767 811.923,662.498 811.921,661.234C811.921,659.234 811.979,657.254 812.143,655.261C812.307,653.257 812.483,651.254 812.561,649.242C812.561,649.226 812.542,649.226 812.538,649.238C811.768,651.148 811.01,653.066 810.346,655.019C809.667,657.011 809.182,659.031 808.823,661.105C808.487,663.047 808.366,665.047 808.335,667.011C808.319,668.14 808.319,669.265 808.338,670.394C808.362,671.738 808.311,673.132 808.647,674.441C808.835,675.168 809.44,675.754 810.159,675.949C810.956,676.168 811.647,675.898 812.26,675.394C812.96,674.82 813.014,673.91 813.178,673.09C813.28,672.566 813.397,672.05 813.51,671.531C813.717,670.554 813.936,669.578 814.104,668.593C814.526,666.136 814.667,663.675 814.838,661.195C815.018,658.558 815.069,655.906 815.147,653.265C815.237,650.203 815.424,647.152 815.651,644.097C815.653,644.09 815.647,644.086 815.64,644.086C815.634,644.086 815.628,644.09 815.628,644.097" style="fill-rule:nonzero;stroke:black;stroke-width:5.56px;"/>
        </g>
        <g transform="matrix(0.359554,0,0,0.359554,-225.567,-212.052)">
            <path d="M695.036,687.694C695.017,687.691 694.998,687.689 694.979,687.686C694.998,687.689 695.017,687.692 695.036,687.694M695.069,687.698C695.086,687.701 695.103,687.703 695.12,687.705C695.092,687.701 695.064,687.697 695.036,687.694C695.047,687.695 695.058,687.697 695.069,687.698M695.628,687.773C695.616,687.771 695.604,687.769 695.593,687.768C695.604,687.77 695.616,687.771 695.628,687.773M672.948,686.022C670.952,686.049 668.948,686.381 667.097,687.131C665.155,687.916 663.222,688.736 661.327,689.623C657.89,691.233 654.643,693.217 651.464,695.287C650.956,695.619 650.444,695.955 649.932,696.279C649.039,696.85 648.074,697.394 647.274,698.097C647.203,698.157 647.133,698.22 647.065,698.287C646.436,698.92 646.077,699.787 646.077,700.678C646.077,702.17 647.104,703.561 648.561,703.94C648.952,704.057 649.358,704.123 649.768,704.139C650.452,704.139 651.073,703.916 651.698,703.694C652.39,703.447 653.073,703.104 653.749,702.807C654.585,702.436 655.386,701.971 656.179,701.518C657.733,700.643 659.237,699.67 660.741,698.713C663.595,696.895 666.471,695.015 669.529,693.549C671.771,692.723 674.136,692.353 676.487,691.959C679.011,691.537 681.542,691.19 684.057,690.725C689.05,689.803 694.057,688.979 699.018,687.912C699.03,687.912 699.026,687.889 699.015,687.889C697.87,687.943 696.764,687.917 695.628,687.773C695.641,687.775 695.656,687.777 695.669,687.778C695.467,687.753 695.268,687.727 695.069,687.698C691.359,687.191 687.615,686.845 683.878,686.611C680.45,686.399 677.046,686.017 673.611,686.017C673.39,686.017 673.169,686.019 672.948,686.022" style="fill-rule:nonzero;stroke:black;stroke-width:5.56px;"/>
        </g>
        <g transform="matrix(0.359554,0,0,0.359554,-225.567,-212.052)">
            <path d="M662.638,707.251C662.638,707.242 662.637,707.233 662.634,707.225C662.636,707.234 662.637,707.242 662.638,707.251M702.708,739.561L703.505,739.668C703.24,739.633 702.973,739.597 702.708,739.561M727.04,685.483C725.447,685.588 723.853,685.69 722.259,685.76C722.243,685.76 722.24,685.78 722.255,685.784C726.047,686.511 729.868,687.424 733.466,688.833C733.946,689.056 734.4,689.282 734.834,689.57C735.508,690.205 736.125,690.865 736.713,691.576C738.419,693.885 739.915,696.343 741.415,698.792C743.009,701.389 744.736,703.956 746.111,706.678C747.435,709.295 748.833,711.866 750.068,714.53C750.268,714.964 750.47,715.399 750.674,715.832C750.492,715.857 750.311,715.883 750.13,715.909C747.908,716.229 745.861,717.186 743.857,718.182C740.545,719.831 737.382,721.761 734.021,723.3C732.627,723.854 731.214,724.368 729.798,724.854C728.036,725.464 726.238,725.854 724.407,726.159C720.805,726.563 717.184,726.804 713.564,726.963C709.829,727.124 706.111,726.874 702.38,726.87C698.126,726.858 693.872,726.956 689.622,727.038C687.658,727.077 685.693,727.127 683.732,727.061C682.313,727.012 680.888,726.877 679.476,726.706C676.714,726.249 674.017,725.505 671.422,724.46C670.408,723.987 669.462,723.446 668.547,722.804C667.904,722.277 667.314,721.71 666.772,721.075C666.224,720.29 665.784,719.462 665.39,718.591C664.682,716.869 664.03,715.101 663.638,713.28C663.214,711.292 662.937,709.262 662.638,707.251L662.638,707.26C662.482,705.905 662.353,704.545 662.138,703.198C661.876,701.549 661.525,699.928 661.142,698.303C661.138,698.288 661.115,698.295 661.118,698.311C661.473,699.998 661.788,701.672 662.023,703.378C662.022,703.376 662.022,703.375 662.021,703.374C662.158,704.612 662.286,705.85 662.372,707.092C662.458,708.252 662.376,709.424 662.357,710.588C662.314,712.952 662.236,715.342 662.326,717.706C662.411,719.866 662.794,722.049 663.837,723.959C664.404,724.995 665.177,725.909 665.935,726.803C666.724,727.737 667.583,728.612 668.54,729.374C670.474,730.917 672.685,732.006 674.904,733.073C677.107,734.135 679.31,735.206 681.642,735.952C686.865,737.62 692.259,738.42 697.693,739.045C699.935,739.303 702.185,739.499 704.423,739.792L704.326,739.778C705.721,739.965 707.115,740.148 708.509,740.334C708.461,740.328 708.412,740.321 708.365,740.314C710.188,740.555 712.011,740.775 713.845,740.956C715.939,741.159 718.056,740.983 720.146,740.788C724.74,740.35 729.326,739.756 733.822,738.702C736.173,738.147 738.361,737.053 740.552,736.057C742.197,735.315 743.845,734.581 745.493,733.842C747.306,733.034 748.896,731.776 750.517,730.655C751.546,729.944 752.62,729.344 753.742,728.815C754.521,728.543 755.32,728.328 756.115,728.1C756.602,727.963 757.088,727.833 757.578,727.717C758.106,727.811 758.637,727.884 759.048,727.877C760.517,727.854 762.314,727.557 763.583,726.729C765.4,725.545 766.677,724.092 767.345,722.002C767.583,721.268 767.622,720.491 767.677,719.721C767.779,718.319 767.216,717.229 766.693,715.999C766.513,715.577 766.247,715.217 765.99,714.838C765.431,714.03 764.837,713.233 764.181,712.499C763.466,711.69 762.759,710.885 762.083,710.045C760.751,708.389 759.4,706.752 758.056,705.104C756.615,703.338 755.079,701.706 753.447,700.112C751.919,698.612 750.56,696.94 749.052,695.42C747.326,693.682 745.572,691.936 743.685,690.37C742.724,689.577 741.747,688.815 740.759,688.057C739.536,687.116 738.271,686.409 736.845,685.811C736.279,685.577 735.63,685.51 735.025,685.444C734.216,685.354 733.423,685.307 732.611,685.284C732.32,685.275 732.03,685.272 731.739,685.272C730.171,685.272 728.606,685.384 727.04,685.483" style="fill-rule:nonzero;stroke:black;stroke-width:5.56px;"/>
        </g>
        <g transform="matrix(0.359554,0,0,0.359554,-225.567,-212.052)">
            <path d="M914.26,709.802C914.267,709.811 914.274,709.821 914.281,709.83C914.274,709.821 914.267,709.812 914.26,709.802M841.132,709.799L841.131,709.799C841.13,709.8 841.129,709.801 841.127,709.802C841.129,709.801 841.13,709.8 841.132,709.799M858.158,697.884C856.483,697.962 854.776,698.704 853.354,699.536C852.377,700.114 851.455,700.915 850.569,701.618C849.834,702.197 849.127,702.802 848.428,703.423C847.615,704.145 846.806,704.87 845.996,705.592C845.034,706.386 844.115,707.236 843.182,708.067C842.566,708.599 841.945,709.125 841.317,709.645C840.627,710.124 839.842,710.592 839.658,711.474C839.467,712.383 839.782,713.208 840.381,713.713C840.254,713.961 840.133,714.211 840.018,714.462C839.397,715.822 838.815,717.204 838.358,718.626C837.889,720.083 837.787,721.654 837.854,723.173C837.959,725.54 838.514,727.767 839.799,729.782C840.76,731.29 842.076,732.458 843.397,733.63C844.537,734.646 845.604,735.622 846.846,736.536C847.963,737.353 849.197,738.005 850.436,738.622C852.924,739.864 855.475,741.083 858.115,741.962C859.944,742.564 861.819,742.978 863.635,743.622C866.612,744.685 869.686,745.47 872.682,746.49C873.783,746.865 874.865,747.251 875.998,747.517C877.396,747.845 878.814,747.907 880.231,748.047C882.161,748.327 884.09,748.625 886.026,748.857C887.664,749.054 889.308,749.157 890.95,749.3C891.826,749.478 892.683,749.717 893.565,749.884C895.315,750.22 897.123,750.407 898.908,750.388C901.42,750.361 903.924,750.349 906.428,750.177C912.546,749.754 918.615,749.11 924.688,748.26C925.557,748.151 926.419,748.068 927.299,748.161C927.179,748.145 927.06,748.129 926.94,748.113C927.731,748.206 928.464,748.23 929.334,747.99C931.233,747.47 932.701,745.923 933.28,744.072C933.748,742.572 933.674,740.943 933.596,739.388C933.49,737.384 933.209,735.357 932.756,733.4C931.924,729.802 930.815,726.341 929.104,723.06C928.256,721.435 927.026,719.911 925.787,718.572C924.471,717.15 923.065,715.849 921.615,714.568C918.799,712.072 915.811,709.657 912.518,707.825C912.506,707.818 912.494,707.833 912.502,707.845C913.132,708.506 913.731,709.182 914.322,709.883C914.571,710.203 914.816,710.52 915.065,710.841C915.03,710.798 914.998,710.755 914.967,710.716C917.825,714.65 920.585,718.612 922.593,723.046C923.107,724.481 923.497,725.893 923.766,727.388C924.127,730.639 924.199,733.972 923.979,737.238C922.41,736.947 920.842,736.658 919.26,736.427C915.826,735.923 912.381,735.552 908.924,735.263C906.268,735.04 903.635,734.947 900.967,734.935C899.787,734.927 898.615,734.861 897.436,734.896C895.972,734.935 894.529,735.181 893.089,735.424C892.569,735.449 892.058,735.439 891.536,735.403C889.32,735.043 887.13,734.583 884.948,734.04C882.862,733.518 880.822,733.202 878.704,732.915C879.174,732.978 879.642,733.039 880.112,733.103C878.315,732.81 876.533,732.212 874.815,731.634C873.737,731.271 872.643,730.954 871.553,730.63C870.451,730.298 869.385,729.907 868.268,729.642C866.147,729.142 864.084,728.497 861.944,728.079C859.597,727.616 857.218,727.114 854.969,726.287C853.343,725.54 851.759,724.69 850.285,723.677C849.964,723.401 849.657,723.114 849.365,722.807C849.308,722.712 849.253,722.616 849.199,722.519C849.177,722.447 849.157,722.374 849.138,722.302C849.123,721.667 849.158,721.029 849.217,720.395C849.465,719.083 849.85,717.823 850.326,716.577C851.081,714.979 851.996,713.5 853.039,712.074C854.879,709.812 856.948,707.675 859.164,705.761C859.78,705.357 860.363,704.908 860.865,704.419C860.853,704.41 860.841,704.4 860.829,704.391C861.541,703.725 861.987,702.838 861.987,701.712C861.987,699.744 860.326,697.881 858.306,697.881C858.257,697.881 858.208,697.882 858.158,697.884" style="fill-rule:nonzero;stroke:black;stroke-width:5.56px;"/>
        </g>
        <g transform="matrix(0.218986,0,0,0.218986,-128.693,-108.266)">
            <path d="M709.068,699.481C709.098,699.494 709.129,699.506 709.158,699.52C709.128,699.506 709.098,699.494 709.068,699.481M700.099,698.399C700.077,698.453 700.055,698.506 700.032,698.56C700.054,698.506 700.077,698.453 700.099,698.399M703.272,693.513C703.32,694.097 703.422,694.672 703.572,695.219C703.675,695.592 703.815,695.961 703.975,696.327C703.933,696.865 703.909,697.406 703.912,697.958C703.916,699.008 703.841,700.063 703.767,701.11C703.588,703.606 703.314,706.086 703.068,708.575C702.857,710.766 702.74,712.965 702.716,715.169L702.716,715.176C702.535,714.989 702.36,714.796 702.185,714.595C701.451,713.541 700.842,712.439 700.315,711.268C699.997,710.434 699.733,709.607 699.551,708.732C699.491,707.931 699.504,707.158 699.582,706.356C699.77,705.347 700.035,704.396 700.404,703.441C700.797,702.583 701.251,701.78 701.756,700.981L701.697,701.063C702.002,700.622 702.349,700.223 702.744,699.864C702.752,699.856 702.744,699.836 702.732,699.844C701.263,700.362 699.94,701.154 698.805,702.159C699.113,701.025 699.485,699.91 699.93,698.808C700.685,697.19 701.565,695.7 702.624,694.269C702.836,694.01 703.052,693.758 703.272,693.513M712.103,684.079C711.244,684.137 710.388,684.243 709.541,684.399C708.884,684.676 708.232,684.954 707.576,685.231C706.341,685.961 705.357,686.946 704.627,688.18C704.004,689.012 703.606,689.998 703.402,691.034C702.847,691.357 702.308,691.704 701.787,692.063C694.869,696.825 691.341,704.833 689.634,712.809C688.689,717.235 689.24,721.747 690.396,726.079C690.877,727.883 691.49,729.563 692.322,731.251C692.873,732.36 693.677,733.301 694.494,734.231C695.88,735.813 697.822,736.622 699.724,737.36C700.478,737.653 701.123,737.821 701.916,737.942C703.748,738.219 705.302,738.434 707.111,738.286C708.298,738.176 709.478,738.004 710.646,737.77C711.795,737.497 712.892,737.071 713.935,736.493C715.365,735.883 716.455,735.012 717.666,733.965C718.513,733.227 719.904,731.516 720.252,730.79C720.756,729.758 721.213,728.704 721.623,727.626C721.916,726.532 722.088,725.418 722.138,724.282C722.213,723.696 722.265,723.109 722.322,722.524C722.534,721.246 722.763,719.966 722.838,718.672C722.916,717.36 722.959,716.059 722.966,714.743C722.982,712.498 722.829,710.256 722.621,708.025C723.332,705.959 723.718,703.872 723.951,701.657C724.056,700.649 723.963,699.626 723.838,698.629C723.638,697.063 723.404,695.563 722.943,694.051C721.939,690.766 720.099,687.543 717.154,685.641C715.88,684.821 714.074,684.065 712.468,684.065C712.345,684.065 712.223,684.069 712.103,684.079" style="fill-rule:nonzero;stroke:black;stroke-width:9.13px;"/>
        </g>
        <g transform="matrix(0.202701,0,0,0.202701,-90.2591,-95.3942)">
            <path d="M884.397,716.185C884.344,717.427 884.165,718.669 884.016,719.901C883.672,722.185 883.319,724.431 882.589,726.606C882.196,727.331 881.784,728.031 881.327,728.716C880.937,729.15 880.532,729.559 880.103,729.951C879.708,730.202 879.307,730.43 878.892,730.642C878.194,730.869 877.495,731.056 876.776,731.208C876.189,731.252 875.603,731.268 875.014,731.254C874.831,731.244 874.648,731.232 874.465,731.218C874.319,731.185 874.175,731.149 874.031,731.112C874.061,730.981 874.09,730.852 874.119,730.721C874.394,729.464 874.833,728.27 875.292,727.074C876.46,724.533 877.777,722.121 879.346,719.812C879.995,719.049 880.675,718.337 881.426,717.666C882.103,717.216 882.8,716.821 883.527,716.462C883.816,716.363 884.106,716.271 884.397,716.185M875.99,705.131C872.885,707.35 870.362,710.264 868.553,713.623C866.615,717.213 865.826,721.233 864.971,725.182C864.898,725.517 864.824,725.854 864.752,726.193C864.372,726.812 864,727.437 863.639,728.069C861.697,731.467 862.768,735.311 865.213,738.116C867.588,740.846 871.014,742.577 874.518,743.319C876.475,743.737 878.475,743.85 880.459,743.631C881.612,743.502 882.694,743.331 883.807,743.045C884.886,742.768 885.897,742.225 886.916,741.788C887.725,741.44 888.439,740.889 889.143,740.373C890.127,739.647 891.029,738.905 891.908,738.061C893.186,736.834 894.229,735.315 895.244,733.873C896.947,731.456 898.24,728.565 898.869,725.678C899.51,722.733 899.675,719.702 899.791,716.698C899.834,715.569 899.889,714.44 899.901,713.311C899.939,708.967 897.468,704.963 893.744,702.827C891.739,701.677 889.553,701.183 887.345,701.183C883.314,701.183 879.209,702.829 875.99,705.131" style="fill-rule:nonzero;stroke:black;stroke-width:9.87px;"/>
        </g>
        <g transform="matrix(0.359554,0,0,0.359554,-225.567,-212.052)">
            <path d="M739.801,789.485C739.793,789.538 739.786,789.589 739.779,789.641C739.785,789.589 739.792,789.538 739.801,789.485M741.254,784.985C741.238,785.026 741.221,785.066 741.204,785.106C741.221,785.066 741.237,785.026 741.254,784.985M744.508,778.497C742.574,780.219 740.602,781.977 739.035,784.051C738.254,785.087 737.571,786.176 737.012,787.348C736.676,788.048 736.391,788.762 736.172,789.508C735.746,790.981 736.313,792.438 736.977,793.727C737.891,795.505 740.039,796.692 741.738,797.579C742.856,798.165 744.047,798.63 745.242,799.036C747.973,799.969 750.629,799.989 753.481,799.887C753.492,799.883 753.496,799.868 753.485,799.864C749.716,797.826 745.663,796.057 742.197,793.504C741.572,792.976 740.997,792.423 740.466,791.799C740.281,791.541 740.113,791.269 739.961,790.985L740.16,791.454C739.97,791.105 739.835,790.739 739.755,790.356C739.745,790.171 739.747,789.985 739.762,789.799C740.047,788.224 740.551,786.709 741.154,785.23C742.196,782.953 743.414,780.756 744.528,778.512C744.53,778.504 744.522,778.495 744.514,778.495C744.512,778.495 744.509,778.496 744.508,778.497" style="fill-rule:nonzero;stroke:black;stroke-width:5.56px;"/>
        </g>
        <g transform="matrix(0.359554,0,0,0.359554,-225.567,-212.052)">
            <path d="M827.571,801.511L827.127,801.57L827.571,801.511ZM842.627,791.722C842.634,791.771 842.639,791.82 842.645,791.868C842.639,791.82 842.633,791.771 842.627,791.722M841.529,788.261C841.545,788.298 841.559,788.334 841.574,788.37C841.559,788.334 841.544,788.298 841.529,788.261M839.326,784.8C840.112,785.99 840.913,787.165 841.595,788.421C842.078,789.609 842.438,790.812 842.67,792.074C842.782,793.071 842.823,794.048 842.745,795.046C842.657,795.399 842.558,795.738 842.443,796.077C842.26,796.431 842.064,796.765 841.846,797.094C841.544,797.422 841.227,797.726 840.892,798.014C839.839,798.724 838.722,799.328 837.573,799.865C836.861,800.101 836.146,800.267 835.409,800.399C833.006,800.7 830.612,801.022 828.218,801.411C828.168,801.417 828.118,801.423 828.069,801.429C826.944,801.433 825.897,801.714 824.928,802.277C823.537,803.093 822.498,804.441 822.069,805.995C821.365,808.546 822.455,811.788 824.928,813.023C827.213,814.159 828.998,813.913 831.381,813.55C831.533,813.527 831.684,813.499 831.835,813.469C832.675,813.391 833.514,813.303 834.354,813.183C836.334,812.902 838.217,812.284 839.975,811.308C842.274,810.034 844.112,808.254 845.356,806.091C845.876,805.366 846.305,804.568 846.651,803.691C847.522,801.468 847.912,799.011 847.776,796.628C847.776,796.616 847.764,796.609 847.756,796.616C847.536,796.868 847.308,797.108 847.074,797.339C846.902,795.667 846.494,794.01 845.897,792.519C845.373,791.214 844.721,790.034 843.877,788.913C842.615,787.238 841.002,786.034 839.346,784.784C839.343,784.783 839.342,784.782 839.339,784.782C839.33,784.782 839.323,784.794 839.326,784.8" style="fill-rule:nonzero;stroke:black;stroke-width:5.56px;"/>
        </g>
        <g transform="matrix(0.359554,0,0,0.359554,-225.567,-212.052)">
            <path d="M764.555,793.672C763.225,794.379 762.059,795.708 761.313,797.167C760.934,797.294 760.552,797.449 760.16,797.629C759.508,797.93 758.797,798.672 758.41,799.254C757.981,799.891 757.727,800.523 757.485,801.246C756.961,802.828 757.656,804.641 758.422,805.996C759.168,807.328 760.555,808.348 761.785,809.187C763.199,810.148 764.934,810.707 766.598,811.016C766.836,811.06 767.072,811.097 767.305,811.127C769.291,811.815 771.465,811.911 773.43,811.219C774.672,810.781 775.653,810.238 776.629,809.352C777.313,808.73 777.824,807.988 778.383,807.262C778.791,806.728 779.073,806.123 779.257,805.483C779.723,804.408 779.99,803.245 779.946,802.27C779.828,799.82 779.145,797.641 777.457,795.805C775.957,794.172 774.114,793.137 771.996,792.52C771.264,792.306 770.528,792.21 769.798,792.21C767.97,792.21 766.176,792.81 764.555,793.672" style="fill-rule:nonzero;stroke:black;stroke-width:5.56px;"/>
        </g>
        <g transform="matrix(0.359554,0,0,0.359554,-225.567,-212.052)">
            <path d="M809.645,801.165C809.658,801.194 809.67,801.224 809.683,801.254L809.682,801.254C809.67,801.224 809.658,801.194 809.645,801.165M809.793,801.044C809.799,801.082 809.805,801.121 809.809,801.159C809.804,801.121 809.799,801.082 809.793,801.044M810.508,800.7C810.433,800.761 810.356,800.82 810.278,800.877C810.355,800.817 810.432,800.759 810.508,800.7M810.218,800.54C810.18,800.644 810.138,800.745 810.091,800.844C810.133,800.742 810.175,800.642 810.218,800.54M805.43,788.86C804.29,789.095 803.278,789.474 802.215,789.997C801.343,790.431 800.011,791.212 799.457,791.919C798.886,792.634 798.324,793.356 797.77,794.087C797.079,795.267 796.386,797.239 796.442,798.622C796.489,799.77 796.598,800.895 796.968,801.989C797.332,803.056 797.992,804.394 798.805,805.341C799.177,806.186 799.687,806.952 800.266,807.423C801.632,808.536 803.032,809.438 804.86,809.489C805.129,809.496 805.393,809.486 805.649,809.461C806.692,809.777 807.898,809.796 808.965,809.774C810.324,809.747 811.989,809.31 813.168,808.618C813.727,808.29 814.247,807.887 814.715,807.426C815.563,807.043 816.324,806.506 817.114,805.86C819.79,803.669 819.848,799.517 819.136,796.481C818.77,794.931 817.761,793.235 816.656,792.087C815.153,790.52 813.465,789.61 811.41,788.954C810.492,788.66 809.478,788.539 808.46,788.539C807.42,788.539 806.379,788.665 805.43,788.86" style="fill-rule:nonzero;stroke:black;stroke-width:5.56px;"/>
        </g>
        <g transform="matrix(0.359554,0,0,0.359554,-225.567,-212.052)">
            <path d="M729.726,816.186C726.55,819.413 723.542,822.815 721.285,826.756C719.39,830.065 717.785,833.682 717.492,837.514C717.492,837.526 717.503,837.534 717.511,837.526C719.964,834.627 721.464,831.221 723.324,827.952C724.308,826.229 725.175,824.444 726.171,822.725C727.413,820.581 728.601,818.397 729.746,816.202C729.748,816.193 729.741,816.182 729.733,816.182C729.73,816.182 729.728,816.183 729.726,816.186" style="fill-rule:nonzero;stroke:black;stroke-width:5.56px;"/>
        </g>
        <g transform="matrix(0.359554,0,0,0.359554,-225.567,-212.052)">
            <path d="M850.118,835.625L850.134,835.739C850.128,835.701 850.123,835.663 850.118,835.625M848.392,826.345C848.942,829.366 849.638,832.367 850.086,835.404C850.465,838.531 850.043,841.573 849.845,844.685C849.72,846.618 849.736,848.563 849.888,850.497C850.173,854.095 850.99,857.774 853.572,860.438C853.576,860.446 853.587,860.442 853.591,860.431C854.153,858.085 854.677,855.743 855,853.353C855.498,849.805 855.637,846.256 855.115,842.696C854.236,836.759 851.493,831.407 848.411,826.337C848.409,826.331 848.405,826.329 848.402,826.329C848.395,826.329 848.389,826.337 848.392,826.345" style="fill-rule:nonzero;stroke:black;stroke-width:5.56px;"/>
        </g>
        <g transform="matrix(0.359554,0,0,0.359554,-225.567,-212.052)">
            <path d="M785.8,822.561C785.202,824.916 784.626,827.293 784.143,829.674C783.846,830.404 783.565,831.138 783.3,831.881C782.573,833.92 781.652,836.514 782.491,838.608C782.984,839.838 783.902,840.76 785.316,840.76C786.995,840.76 788.144,839.42 788.249,837.827C788.293,837.161 788.228,836.481 788.129,835.805C788.109,834.958 788.107,834.11 788.046,833.264C787.972,832.252 787.831,831.245 787.667,830.241C787.421,828.699 786.96,827.191 786.412,825.727C786.218,824.671 786.023,823.616 785.823,822.561C785.821,822.555 785.816,822.552 785.81,822.552C785.805,822.552 785.8,822.555 785.8,822.561" style="fill-rule:nonzero;stroke:black;stroke-width:5.56px;"/>
        </g>
        <g transform="matrix(0.359554,0,0,0.359554,-225.567,-212.052)">
            <path d="M742.994,861.809C742.899,861.796 742.804,861.784 742.708,861.771C742.804,861.786 742.899,861.797 742.994,861.809M771.981,852.361C770.762,852.553 769.853,853.421 768.956,854.208C768.406,854.559 767.841,854.89 767.256,855.178C765.322,855.856 763.304,856.171 761.282,856.494C759.37,856.796 757.457,857.118 755.542,857.411C751.792,857.895 748.021,858.21 744.274,858.74C742.501,858.994 740.723,859.244 738.954,859.552C736.989,859.892 735.091,860.552 733.2,861.173C733.188,861.177 733.188,861.197 733.204,861.197C734.977,861.201 736.751,861.189 738.524,861.318C740.048,861.427 741.579,861.619 743.095,861.822C743.061,861.818 743.028,861.813 742.994,861.809C748.666,862.573 754.378,863.301 760.083,863.716C762.395,863.884 764.645,864.126 766.966,863.872C768.356,863.716 769.731,863.497 771.079,863.119C771.893,862.89 772.661,862.532 773.429,862.178C773.715,862.414 773.998,862.655 774.274,862.9C774.895,863.451 775.524,863.958 776.196,864.458C776.856,864.951 777.833,865.271 778.548,865.552C780.138,866.177 782.11,865.638 783.52,864.837C783.852,864.65 784.165,864.431 784.501,864.244C785.001,863.966 785.449,863.611 785.931,863.307C787.685,863.217 789.497,863.423 791.239,863.64C792.837,863.875 794.404,864.168 795.977,864.568C797.852,865.044 799.72,865.564 801.595,866.044C803.259,866.466 804.88,867.033 806.548,867.435C808.325,867.861 810.118,868.181 811.923,868.462C815.634,869.04 819.368,869.572 823.122,869.751C826.817,869.926 830.551,870.036 834.22,870.505L834.208,870.505C834.778,870.583 835.348,870.669 835.915,870.755C835.931,870.759 835.938,870.74 835.927,870.736C834.333,869.978 832.743,869.236 831.091,868.615C829.579,868.044 828.044,867.537 826.528,866.97C824.931,866.376 823.337,865.798 821.704,865.318C820.056,864.837 818.477,864.138 816.895,863.478C817.122,863.576 817.348,863.669 817.575,863.767C815.544,862.91 813.507,862.074 811.472,861.232C809.51,860.381 807.561,859.496 805.583,858.673C805.911,858.81 806.235,858.947 806.559,859.083C804.048,858.009 801.595,856.81 799.048,855.818C796.634,854.876 794.063,854.138 791.524,853.662C788.669,853.126 785.766,852.767 782.888,853.247C781.706,853.445 780.736,853.959 779.825,854.594C779.155,854.128 778.482,853.667 777.747,853.302C777.098,852.982 776.431,852.665 775.743,852.451C775.107,852.252 774.502,852.178 773.896,852.178C773.271,852.178 772.644,852.257 771.981,852.361" style="fill-rule:nonzero;stroke:black;stroke-width:5.56px;"/>
        </g>
        <g transform="matrix(0.359554,0,0,0.359554,-225.567,-212.052)">
            <path d="M786.154,870.375C784.795,870.466 783.441,870.648 782.091,870.837C780.312,871.056 778.521,871.24 776.728,871.362C775.133,871.262 773.541,871.102 771.939,871.066C769.848,871.023 767.823,871.331 765.784,871.721C765.211,871.71 764.638,871.686 764.064,871.641C764.052,871.641 764.045,871.66 764.056,871.664C767.904,873.422 771.955,874.973 776.162,875.594C778.498,875.941 780.834,875.992 783.193,876.074C784.267,876.113 785.338,876.211 786.408,876.281C787.517,876.355 789.021,876.598 790.099,876.211L790.098,876.209C790.572,876.087 791.024,875.838 791.416,875.445C792.701,874.16 792.56,871.617 790.81,870.762C790.015,870.371 789.133,870.265 788.241,870.265C787.539,870.265 786.831,870.33 786.154,870.375" style="fill-rule:nonzero;stroke:black;stroke-width:5.56px;"/>
        </g>
        <g transform="matrix(0.359554,0,0,0.359554,-225.567,-212.052)">
            <path d="M759.785,890.403C759.804,890.388 759.823,890.375 759.841,890.36C759.823,890.375 759.804,890.389 759.785,890.403M759.376,890.717C759.513,890.613 759.649,890.508 759.785,890.403C759.648,890.508 759.511,890.613 759.376,890.717M725.044,901.24C725.039,901.241 725.033,901.242 725.028,901.243C725.051,901.24 725.074,901.237 725.097,901.234L725.044,901.24ZM744.513,886.018C739.872,887.089 735.552,889.096 731.626,891.764C730.708,892.389 729.79,892.995 728.946,893.725C728.173,894.397 727.556,895.296 726.985,896.132C725.876,897.76 724.86,899.456 723.688,901.046C723.688,901.045 723.689,901.045 723.689,901.045C723.568,901.202 723.444,901.354 723.317,901.507C723.309,901.518 723.317,901.53 723.329,901.53C723.893,901.415 724.46,901.326 725.028,901.243C725.013,901.245 724.997,901.247 724.981,901.249L725.044,901.24C725.088,901.234 725.132,901.227 725.177,901.221C725.151,901.226 725.124,901.23 725.097,901.234C726.62,901.041 728.14,900.797 729.622,900.393C731.019,900.01 732.293,899.362 733.591,898.757C734.337,898.513 735.087,898.373 735.859,898.251C739.795,897.801 743.811,897.423 747.657,896.464C752.141,895.346 756.356,893.065 759.989,890.245C759.94,890.283 759.89,890.322 759.841,890.36C760.095,890.165 760.348,889.968 760.602,889.772C760.419,889.917 760.235,890.057 760.056,890.198C761.686,888.947 763.486,888 765.36,887.162C766.46,886.724 767.576,886.465 768.74,886.261C770.002,886.097 771.25,886.021 772.52,885.995C772.536,885.995 772.536,885.971 772.52,885.971C768.134,885.405 763.681,885.667 759.286,885.214C757.585,885.04 755.879,884.948 754.175,884.948C750.933,884.948 747.698,885.281 744.513,886.018" style="fill-rule:nonzero;stroke:black;stroke-width:5.56px;"/>
        </g>
        <g transform="matrix(0.359554,0,0,0.359554,-225.567,-212.052)">
            <path d="M802.948,865.488C801.784,865.699 800.632,865.933 799.503,866.297C797.007,867.093 794.596,868.125 792.245,869.269C790.276,870.23 788.327,871.211 786.417,872.273C785.79,872.618 785.166,872.984 784.529,873.316C784.107,873.248 783.686,873.177 783.264,873.105C783.249,873.105 783.241,873.129 783.257,873.133C783.65,873.212 784.043,873.29 784.436,873.364C784.222,873.474 784.006,873.581 783.788,873.679C783.798,873.675 783.81,873.672 783.821,873.668C783.581,873.764 783.34,873.822 783.081,873.879C783.069,873.883 783.069,873.902 783.081,873.902C783.831,874.043 784.503,874.418 785.261,874.504C785.995,874.582 786.729,874.554 787.468,874.523C790.421,874.393 793.381,873.959 796.308,873.543C796.967,873.456 797.628,873.366 798.286,873.273C798.731,873.214 799.175,873.152 799.619,873.089C800.057,873.03 800.496,872.969 800.935,872.907C801.381,872.849 801.825,872.791 802.271,872.73C804.431,872.504 806.656,872.372 808.78,871.929C808.775,871.924 808.77,871.917 808.765,871.91C809.553,871.715 810.26,871.225 810.725,870.429C811.167,869.675 811.288,868.758 811.057,867.918C810.733,866.746 809.87,866.047 808.78,865.64C807.89,865.31 806.91,865.185 805.921,865.185C804.912,865.185 803.893,865.315 802.948,865.488" style="fill-rule:nonzero;stroke:black;stroke-width:5.56px;"/>
        </g>
        <g transform="matrix(0.359554,0,0,0.359554,-225.567,-212.052)">
            <path d="M787.452,857.953C787.204,857.988 786.956,858.025 786.71,858.063C786.403,858.059 786.095,858.053 785.788,858.043C782.192,857.934 778.869,860.392 777.585,863.674C777.255,864.027 776.964,864.414 776.722,864.828C775.811,866.383 775.565,868.277 776.046,870.016C776.542,871.824 777.659,872.98 779.136,874.039C781.335,875.613 784.268,875.777 786.893,875.976C787.987,876.058 789.089,876.168 790.186,876.18C791.28,876.191 792.374,876.164 793.464,876.133C793.549,876.131 793.634,876.129 793.719,876.126C794.152,876.182 794.585,876.235 795.02,876.283C795.994,876.502 796.983,876.682 797.981,876.597C799.5,876.588 801.023,876.185 802.307,875.433C803.585,874.676 804.604,873.66 805.358,872.383C805.643,871.707 805.929,871.027 806.214,870.351C806.62,868.848 806.62,867.34 806.214,865.832C806.19,865.672 806.163,865.508 806.139,865.344C805.714,863.836 804.948,862.523 803.843,861.41C802.729,860.305 801.417,859.539 799.909,859.113C799.244,858.873 798.553,858.697 797.849,858.564C796.584,858.101 795.248,857.923 793.889,857.766C793.094,857.674 792.311,857.632 791.534,857.632C790.178,857.632 788.834,857.757 787.452,857.953" style="fill-rule:nonzero;stroke:black;stroke-width:5.56px;"/>
        </g>
        <g transform="matrix(0.359554,0,0,0.359554,-225.567,-212.052)">
            <path d="M740.02,779.014C739.511,779.44 739.031,779.897 738.559,780.362C737.372,781.534 736.203,782.692 734.901,783.74C734.343,784.163 733.792,784.59 733.266,785.053C732.61,785.623 732.149,786.409 731.829,787.202C731.598,787.772 731.54,788.334 731.457,788.948C731.293,790.225 731.665,791.592 732.067,792.795C732.497,794.084 733.008,795.385 733.692,796.565C734.356,797.713 735.192,798.76 736.04,799.776C736.758,800.639 737.55,801.397 738.434,802.088C739.579,802.987 740.735,803.725 742.168,804.092C743.117,804.334 744.156,804.342 745.132,804.323C745.793,804.311 746.457,804.315 747.117,804.315C747.727,804.315 748.333,804.315 748.942,804.303C749.52,804.291 750.093,804.268 750.672,804.241C750.989,804.225 751.3,804.201 751.614,804.166C752.571,804.061 753.136,803.987 753.997,803.561C754.852,803.135 755.5,802.178 755.75,801.28C756.035,800.241 755.833,799.287 755.364,798.342C754.563,796.733 752.692,796.311 751.063,796.389C750.494,796.415 749.924,796.485 749.358,796.564C749.242,796.574 749.127,796.579 749.011,796.582C748.79,796.579 748.571,796.576 748.352,796.575C748.271,796.571 748.193,796.567 748.114,796.561C747.607,796.531 747.095,796.511 746.587,796.47C746.083,796.377 745.577,796.299 745.079,796.178C744.355,796 743.65,795.709 742.957,795.427C742.769,795.343 742.581,795.257 742.395,795.168C742.353,795.139 742.314,795.11 742.273,795.08C740.978,793.986 739.885,792.72 738.829,791.407C738.847,791.181 738.871,790.956 738.895,790.733C739.102,789.484 739.505,788.33 739.989,787.151C740.27,786.471 740.559,785.795 740.79,785.096C740.88,784.821 740.965,784.542 741.049,784.265C741.617,783.426 742.159,782.57 742.704,781.713C743.098,781.096 743.489,780.502 743.708,779.795C743.915,779.119 743.399,778.159 742.684,778.022C742.516,777.991 742.358,777.975 742.206,777.975C741.352,777.975 740.703,778.444 740.02,779.014" style="fill-rule:nonzero;stroke:black;stroke-width:5.56px;"/>
        </g>
        <g transform="matrix(0.359554,0,0,0.359554,-225.567,-212.052)">
            <path d="M705.431,861.533C705.401,861.604 705.37,861.676 705.34,861.748C705.335,861.76 705.33,861.772 705.325,861.784C705.36,861.7 705.395,861.617 705.431,861.533M726.314,809.473C726.329,809.582 726.343,809.689 726.358,809.798C726.343,809.689 726.328,809.582 726.314,809.473M723.697,776.802C722.556,782.696 721.572,788.61 720.642,794.54C720.216,797.247 719.704,799.942 719.255,802.645C718.813,805.3 718.473,807.962 718.123,810.629C717.462,814.804 716.803,818.981 715.869,823.106C714.861,827.567 713.962,832.052 712.962,836.516C712.525,838.477 711.935,840.399 711.353,842.325C710.685,844.552 710.064,846.79 709.439,849.032C708.245,853.326 706.926,857.646 705.314,861.806C704.67,863.256 703.957,864.675 703.372,866.145C702.786,867.63 702.263,869.137 701.755,870.649C700.646,873.95 699.814,877.305 698.872,880.653C698.869,880.665 698.884,880.677 698.892,880.665C700.579,878.673 702.435,876.833 704.224,874.934C705.908,873.153 707.56,871.341 709.244,869.563C712.693,865.927 715.411,861.595 717.978,857.309C720.716,852.727 723.318,848.009 724.665,842.809C726.029,837.544 726.951,832.204 727.349,826.782C727.54,824.223 727.634,821.677 727.568,819.11C727.49,816.251 726.919,813.422 726.466,810.605C726.463,810.581 726.46,810.557 726.456,810.534C725.963,806.441 725.282,802.382 724.724,798.302C723.875,791.144 723.786,784.002 723.72,776.805C723.72,776.797 723.713,776.792 723.706,776.792C723.702,776.792 723.697,776.795 723.697,776.802" style="fill-rule:nonzero;stroke:black;stroke-width:5.56px;"/>
        </g>
        <g transform="matrix(0.359554,0,0,0.359554,-225.567,-212.052)">
            <path d="M846.486,902.085C846.49,902.108 846.494,902.133 846.498,902.158L846.486,902.085ZM843.802,817.663C844.15,821.761 844.549,825.839 845.166,829.909C845.694,833.384 846.188,836.862 846.675,840.344C846.976,842.692 847.257,845.038 847.365,847.405C847.478,849.933 847.498,852.46 847.537,854.987C847.576,857.433 847.572,859.882 847.611,862.327C847.647,864.573 847.673,866.787 847.457,869.02C846.507,874.503 844.547,879.75 843.767,885.276C843.341,888.331 843.088,891.425 843.146,894.511C843.181,896.37 843.381,898.249 843.916,900.034C844.509,902.019 845.814,903.644 847.162,905.171C847.17,905.179 847.185,905.171 847.181,905.159C846.9,904.183 846.669,903.206 846.506,902.205C846.393,901.205 846.406,900.231 846.504,899.227C846.888,896.741 847.675,894.314 848.466,891.933C849.244,889.597 850.009,887.257 850.81,884.929C852.361,880.409 854.232,875.917 855.357,871.269C856.549,866.351 856.002,861.034 855.431,856.065C855.119,853.355 854.775,850.62 854.181,847.956C853.65,845.565 852.99,843.21 852.271,840.87C851.17,837.292 849.877,833.772 848.521,830.284C846.892,826.097 845.384,821.87 843.826,817.659C843.824,817.653 843.818,817.65 843.813,817.65C843.806,817.65 843.8,817.654 843.802,817.663" style="fill-rule:nonzero;stroke:black;stroke-width:5.56px;"/>
        </g>
    </g>
</svg>
