<?xml version="1.0" encoding="UTF-8" standalone="no"?>
<!DOCTYPE svg PUBLIC "-//W3C//DTD SVG 1.1//EN" "http://www.w3.org/Graphics/SVG/1.1/DTD/svg11.dtd">
<svg width="100%" height="100%" viewBox="0 0 120 120" version="1.1" xmlns="http://www.w3.org/2000/svg" xmlns:xlink="http://www.w3.org/1999/xlink" xml:space="preserve" style="fill-rule:evenodd;clip-rule:evenodd;stroke-linejoin:round;stroke-miterlimit:1.41421;">
    <g id="Draw-Layer" transform="matrix(0.190609,0,0,0.190609,-92.4786,-80.7776)">
        <path d="M605.597,631.841C604.027,636.958 602.827,642.189 601.585,647.396C600.445,652.185 599.066,656.95 598.269,661.814C597.386,667.185 596.691,672.591 595.941,677.982C595.152,683.669 594.484,689.357 593.968,695.075C593.515,700.075 593.109,705.068 592.859,710.079C592.601,715.271 592.538,720.466 592.39,725.657C592.101,735.88 591.359,746.091 591.171,756.318C591.128,758.681 590.956,761.032 590.867,763.392C590.769,765.923 590.796,768.45 590.757,770.981C590.718,773.442 590.534,775.899 590.484,778.36C590.433,780.88 590.409,783.399 590.413,785.919C590.413,788.333 590.421,790.747 590.363,793.161C590.304,795.673 590.156,798.18 590.117,800.692C590.042,805.516 590.261,810.321 590.398,815.137C590.464,817.633 590.581,820.083 590.855,822.567C591.132,825.044 591.288,827.524 591.597,829.997C592.316,835.766 593.105,841.571 594.468,847.227C595.015,849.489 595.71,851.743 596.558,853.911C597.749,856.95 599.019,859.958 600.581,862.825C601.769,864.997 603.097,867.091 604.316,869.247C605.503,871.337 606.57,873.497 607.683,875.63C608.816,877.794 610.296,879.735 611.55,881.821C612.827,883.942 614.062,886.071 615.21,888.262C616.242,890.231 617.327,892.157 618.632,893.954C620.253,896.192 621.952,898.364 623.675,900.52C626.855,904.762 630.093,908.962 633.702,912.856C637.206,916.633 640.902,920.266 644.749,923.692C646.538,925.282 648.441,926.766 650.324,928.247C653.023,930.364 655.792,932.383 658.691,934.223C660.831,935.585 662.892,937.056 665.101,938.301C665.212,938.289 665.322,938.282 665.433,938.282C666.529,938.282 667.599,938.893 668.137,939.876C669.405,940.489 670.689,941.069 671.972,941.645C673.347,942.262 674.73,942.868 676.128,943.438C682.093,944.067 688.062,944.989 693.675,947.024C695.355,947.633 697.027,948.243 698.691,948.883C699.632,948.966 700.574,949.044 701.511,949.145C703.785,949.469 706.054,949.794 708.327,950.094C707.527,949.989 706.726,949.88 705.925,949.77C708.788,950.165 711.617,950.704 714.449,951.282C717.57,951.915 720.699,952.38 723.855,952.778C728.718,953.466 733.546,954.301 738.378,955.208C743.867,956.243 749.367,957.305 754.929,957.876C765.636,958.969 776.409,958.325 787.113,957.508C792.909,957.067 798.702,956.395 804.456,955.563C809.617,954.821 814.667,953.544 819.605,951.891C824.769,950.165 829.816,948.032 834.757,945.758C839.12,943.755 843.257,941.446 847.355,938.954C854.292,934.743 860.949,930.071 867.222,924.926C870.234,922.454 873.171,919.907 876.027,917.258C879.183,914.333 882.077,911.2 884.968,908.024C884.98,908.012 884.964,907.997 884.952,908.005C880.952,910.704 876.929,913.309 872.777,915.774C868.956,918.04 865.05,920.149 861.081,922.137C853.077,926.145 844.941,929.903 836.714,933.434C831.882,935.419 826.909,937.005 821.894,938.466C816.343,940.091 810.773,941.446 805.066,942.395C800.956,942.872 796.855,943.118 792.722,943.313C788.562,943.508 784.394,943.68 780.234,943.778C771.589,943.989 762.933,944.192 754.331,943.192C747.597,942.153 740.937,940.661 734.284,939.184C730.988,938.454 727.687,937.844 724.363,937.27C721.574,936.786 718.937,936.008 716.324,934.993C713.312,933.579 710.48,931.837 707.577,930.216C706.05,929.364 704.574,928.426 703.081,927.52C701.644,926.649 700.066,925.993 698.527,925.317C696.937,924.614 695.339,923.93 693.742,923.243C691.148,922.118 688.605,920.86 685.933,919.93C682.773,918.837 679.558,918.012 676.445,916.786C675.062,916.196 673.679,915.606 672.288,915.032C670.097,914.008 668.019,912.794 666.019,911.423C664.331,910.266 662.648,909.126 661.003,907.919C658.277,905.747 655.577,903.563 653.038,901.169C650.535,898.809 648.253,896.208 646.089,893.532C645.429,892.633 644.785,891.727 644.136,890.821C643.046,889.305 641.87,887.844 640.702,886.383C638.3,883.137 636.019,879.801 633.593,876.571C632.191,874.708 631.023,872.708 629.894,870.673C628.769,868.645 628.019,866.434 626.863,864.419C625.726,862.434 624.519,860.493 623.382,858.508C622.21,856.466 621.14,854.372 619.988,852.321C617.87,848.551 615.406,845.012 613.546,841.11C612.382,838.055 611.464,834.919 610.488,831.798C609.64,829.087 609.027,826.313 608.57,823.512C608.398,821.204 608.41,818.891 608.316,816.579C608.214,814.098 608.285,811.614 608.257,809.13C608.206,804.38 607.757,799.633 607.46,794.891C607.148,789.852 607.226,784.79 607.281,779.739C607.304,777.348 607.242,774.962 607.249,772.571C607.265,770.063 607.386,767.56 607.386,765.056C607.39,762.622 607.187,760.193 607.206,757.759C607.23,755.275 607.273,752.794 607.304,750.314C607.37,745.118 607.613,739.939 607.788,734.747C607.964,729.603 608.163,724.458 608.288,719.31C608.41,714.236 608.359,709.161 608.511,704.087C608.656,699.165 609.097,694.279 609.581,689.38C610.058,684.505 610.531,679.634 611.132,674.775C611.87,669.704 612.695,664.638 613.527,659.575C614.355,654.564 615.433,649.587 616.519,644.622C617.234,641.364 617.972,638.111 618.8,634.884C615.199,634.54 611.804,633.443 608.613,631.591C607.765,631.095 606.956,630.552 606.183,629.966C605.984,630.591 605.792,631.216 605.597,631.841" style="fill-rule:nonzero;"/>
        <path d="M842.647,493.042C839.932,493.058 837.217,493.12 834.506,493.222C834.643,494.144 834.733,495.065 834.776,495.991C836.803,496.804 838.733,497.886 840.467,499.144C841.034,499.21 841.6,499.276 842.167,499.347C847.249,500.132 852.292,501.12 857.272,502.409C862.459,503.757 867.577,505.288 872.674,506.937C877.71,508.565 882.756,510.179 887.788,511.823C892.627,513.405 897.428,515.108 902.268,516.694C907.141,518.292 912.056,519.765 916.966,521.247C916.742,520.63 916.536,520.002 916.35,519.362C915.444,516.245 915.225,513.032 915.604,509.904C911.815,508.68 908.012,507.51 904.17,506.448C899.268,505.093 894.374,503.757 889.522,502.214C884.463,500.604 879.424,498.952 874.28,497.624C871.877,497.003 869.452,496.468 867.018,495.98C864.436,495.46 861.846,494.929 859.237,494.569C853.846,493.823 848.374,493.042 842.924,493.042L842.647,493.042Z" style="fill-rule:nonzero;"/>
        <path d="M979.927,791.376C978.392,796.474 977.349,801.716 976.15,806.899C973.818,817.009 971.556,827.149 969.665,837.356C968.72,842.454 967.806,847.564 966.927,852.673C966.009,857.981 965.146,863.298 964.138,868.587C964.036,869.11 963.935,869.634 963.829,870.157C964.7,870.067 965.579,870.021 966.458,870.021C968.677,870.021 970.904,870.314 973.064,870.907C974.622,871.337 976.126,871.919 977.564,872.638C978.204,868.692 978.861,864.751 979.458,860.798C980.239,855.599 980.892,850.384 981.544,845.165C982.97,835.177 984.861,825.255 986.544,815.31C987.439,810.013 988.431,804.747 989.63,799.513C990.195,797.042 990.875,794.612 991.628,792.204C990.415,790.814 989.375,789.322 988.509,787.728C986.966,785.474 985.81,782.989 985.052,780.278C984.907,779.347 984.761,778.424 984.625,777.506C982.907,782.074 981.333,786.702 979.927,791.376" style="fill-rule:nonzero;"/>
        <path d="M751.389,667.057C751.227,667.182 751.066,667.307 750.904,667.433C751.066,667.307 751.227,667.182 751.389,667.057M773.494,634.355C772.924,636.144 772.334,637.929 771.748,639.714C771.369,640.863 770.896,641.984 770.455,643.109C770.459,643.097 770.463,643.089 770.467,643.078C769.26,645.667 767.982,648.187 766.529,650.648C765.219,652.873 763.818,655.027 762.275,657.096C761.503,658.026 760.713,658.917 759.806,659.722C758.971,660.46 758.096,661.152 757.236,661.859C755.473,663.306 753.886,664.955 752.169,666.453C752.004,666.581 751.839,666.709 751.674,666.837C750.442,667.688 749.206,668.577 747.869,669.257C747.111,669.64 746.365,670.081 745.588,670.421C744.946,670.703 744.306,670.985 743.668,671.269C742.017,671.898 740.368,672.527 738.666,672.999C736.607,673.574 734.549,674.136 732.474,674.648C728.549,675.62 724.588,676.441 720.65,677.367C716.865,678.257 713.111,679.331 709.303,680.148C705.58,680.945 701.826,681.585 698.178,682.699C694.662,683.769 691.185,684.972 687.724,686.203C684.603,687.316 681.439,688.413 678.564,690.085C678.553,690.093 678.56,690.113 678.576,690.109C680.472,689.67 682.397,689.372 684.326,689.102C688.104,688.642 691.905,688.387 695.693,688.062C699.541,687.726 703.389,687.355 707.236,687.007C715.435,686.265 723.603,685.218 731.678,683.578C735.674,682.765 739.611,681.714 743.431,680.288C745.533,679.507 747.564,678.535 749.576,677.546C751.474,676.617 753.322,675.437 754.971,674.12C755.791,673.464 756.58,672.808 757.346,672.089C758.142,671.335 758.842,670.437 759.463,669.535C760.381,668.206 761.31,666.831 762.01,665.374C762.81,663.718 763.314,661.995 763.877,660.249C764.49,658.339 765.197,656.453 765.904,654.574C766.65,652.593 767.435,650.628 768.256,648.679C768.248,648.699 768.24,648.718 768.232,648.742C769.119,646.777 770.119,644.82 770.853,642.792C771.252,641.699 771.662,640.609 771.998,639.495C772.514,637.785 773.025,636.078 773.517,634.363C773.52,634.353 773.512,634.347 773.504,634.347C773.5,634.347 773.495,634.349 773.494,634.355" style="fill-rule:nonzero;"/>
        <path d="M940.467,710.544C940.458,710.543 940.449,710.542 940.44,710.54C940.45,710.544 940.457,710.544 940.467,710.544M847.518,682.713C847.537,682.86 847.557,683.006 847.576,683.153C847.547,683.007 847.528,682.86 847.518,682.713M847.551,682.177C847.554,682.178 847.556,682.18 847.558,682.181C847.695,682.358 847.831,682.535 847.967,682.712C847.814,682.546 847.675,682.37 847.55,682.186C847.55,682.183 847.551,682.179 847.551,682.177M848.389,647.419C847.682,652.153 846.967,656.88 845.963,661.567C845.123,665.482 844.166,669.436 842.673,673.161C841.739,675.187 840.669,677.15 839.447,679.017C839.065,679.603 838.717,680.271 838.51,680.935C838.311,681.579 838.08,682.521 838.119,683.153C838.174,684.044 838.287,684.911 838.494,685.778C838.717,686.704 839.322,687.685 839.842,688.474C840.776,689.907 842.033,691.056 843.373,692.095C844.619,693.064 845.881,693.915 847.248,694.7C849.772,696.157 852.518,697.286 855.221,698.364C857.748,699.368 860.315,700.286 862.877,701.2C867.854,702.978 872.936,704.431 878.076,705.634C883.045,706.798 888.088,707.528 893.112,708.376C897.248,709.071 901.385,709.548 905.58,709.665C909.483,709.771 913.397,709.646 917.299,709.603C921.049,709.564 924.807,709.423 928.553,709.556C932.537,709.7 936.518,710.024 940.471,710.544L940.467,710.544C940.732,710.582 941,710.62 941.264,710.657C941.279,710.661 941.283,710.642 941.268,710.634C941.076,710.552 940.881,710.47 940.686,710.388L940.709,710.399C938.432,709.431 936.201,708.329 933.901,707.423C931.397,706.435 928.897,705.54 926.311,704.774C923.877,704.052 921.385,703.489 918.924,702.88C916.248,702.216 913.565,701.591 910.877,700.966C908.432,700.399 906.041,699.54 903.631,698.841C901.342,698.177 899.022,697.653 896.717,697.056C891.701,695.755 886.776,694.118 881.815,692.63C876.596,691.06 871.315,689.657 866.014,688.372C861.008,687.16 855.932,686.119 851.112,684.284C850.001,683.737 848.94,683.135 847.925,682.432C847.803,682.322 847.683,682.21 847.565,682.093C847.781,680.778 848.003,679.466 848.088,678.13C848.166,676.864 848.065,675.583 848.022,674.317C847.928,671.427 848.123,668.528 848.244,665.642C848.498,659.567 848.533,653.497 848.416,647.419C848.416,647.413 848.409,647.409 848.403,647.409C848.397,647.409 848.391,647.412 848.389,647.419" style="fill-rule:nonzero;"/>
        <path d="M814.569,643.642C814.018,646.154 813.452,648.662 812.964,651.189C812.749,652.314 812.413,653.431 812.159,654.552C811.94,655.513 811.706,656.47 811.479,657.427C810.499,661.576 809.518,665.763 808.928,669.986C808.924,669.997 808.944,670.009 808.952,669.994C810.749,666.122 812.1,662.021 813.12,657.88C814.264,653.224 814.553,648.419 814.596,643.642C814.596,643.636 814.59,643.631 814.583,643.631C814.577,643.631 814.571,643.634 814.569,643.642" style="fill-rule:nonzero;"/>
        <path d="M814.609,657.34C814.609,657.346 814.608,657.353 814.608,657.359C814.608,657.353 814.609,657.347 814.609,657.34M815.628,644.097C815.366,646.558 815.139,649.015 814.971,651.484C814.836,653.426 814.746,655.371 814.611,657.313C814.431,658.397 814.233,659.45 813.952,660.511C813.695,661.474 813.337,662.398 812.952,663.317C812.678,663.895 812.383,664.464 812.086,665.03C811.989,663.767 811.923,662.498 811.921,661.234C811.921,659.234 811.979,657.254 812.143,655.261C812.307,653.257 812.483,651.254 812.561,649.242C812.561,649.226 812.542,649.226 812.538,649.238C811.768,651.148 811.01,653.066 810.346,655.019C809.667,657.011 809.182,659.031 808.823,661.105C808.487,663.047 808.366,665.047 808.335,667.011C808.319,668.14 808.319,669.265 808.338,670.394C808.362,671.738 808.311,673.132 808.647,674.441C808.835,675.168 809.44,675.754 810.159,675.949C810.956,676.168 811.647,675.898 812.26,675.394C812.96,674.82 813.014,673.91 813.178,673.09C813.28,672.566 813.397,672.05 813.51,671.531C813.717,670.554 813.936,669.578 814.104,668.593C814.526,666.136 814.667,663.675 814.838,661.195C815.018,658.558 815.069,655.906 815.147,653.265C815.237,650.203 815.424,647.152 815.651,644.097C815.653,644.09 815.647,644.086 815.64,644.086C815.634,644.086 815.628,644.09 815.628,644.097" style="fill-rule:nonzero;"/>
        <path d="M695.036,687.694C695.017,687.691 694.998,687.689 694.979,687.686C694.998,687.689 695.017,687.692 695.036,687.694M695.069,687.698C695.086,687.701 695.103,687.703 695.12,687.705C695.092,687.701 695.064,687.697 695.036,687.694C695.047,687.695 695.058,687.697 695.069,687.698M695.628,687.773C695.616,687.771 695.604,687.769 695.593,687.768C695.604,687.77 695.616,687.771 695.628,687.773M672.948,686.022C670.952,686.049 668.948,686.381 667.097,687.131C665.155,687.916 663.222,688.736 661.327,689.623C657.89,691.233 654.643,693.217 651.464,695.287C650.956,695.619 650.444,695.955 649.932,696.279C649.039,696.85 648.074,697.394 647.274,698.097C647.203,698.157 647.133,698.22 647.065,698.287C646.436,698.92 646.077,699.787 646.077,700.678C646.077,702.17 647.104,703.561 648.561,703.94C648.952,704.057 649.358,704.123 649.768,704.139C650.452,704.139 651.073,703.916 651.698,703.694C652.39,703.447 653.073,703.104 653.749,702.807C654.585,702.436 655.386,701.971 656.179,701.518C657.733,700.643 659.237,699.67 660.741,698.713C663.595,696.895 666.471,695.015 669.529,693.549C671.771,692.723 674.136,692.353 676.487,691.959C679.011,691.537 681.542,691.19 684.057,690.725C689.05,689.803 694.057,688.979 699.018,687.912C699.03,687.912 699.026,687.889 699.015,687.889C697.87,687.943 696.764,687.917 695.628,687.773C695.641,687.775 695.656,687.777 695.669,687.778C695.467,687.753 695.268,687.727 695.069,687.698C691.359,687.191 687.615,686.845 683.878,686.611C680.45,686.399 677.046,686.017 673.611,686.017C673.39,686.017 673.169,686.019 672.948,686.022" style="fill-rule:nonzero;"/>
        <path d="M662.638,707.251C662.638,707.242 662.637,707.233 662.634,707.225C662.636,707.234 662.637,707.242 662.638,707.251M702.708,739.561L703.505,739.668C703.24,739.633 702.973,739.597 702.708,739.561M727.04,685.483C725.447,685.588 723.853,685.69 722.259,685.76C722.243,685.76 722.24,685.78 722.255,685.784C726.047,686.511 729.868,687.424 733.466,688.833C733.946,689.056 734.4,689.282 734.834,689.57C735.508,690.205 736.125,690.865 736.713,691.576C738.419,693.885 739.915,696.343 741.415,698.792C743.009,701.389 744.736,703.956 746.111,706.678C747.435,709.295 748.833,711.866 750.068,714.53C750.268,714.964 750.47,715.399 750.674,715.832C750.492,715.857 750.311,715.883 750.13,715.909C747.908,716.229 745.861,717.186 743.857,718.182C740.545,719.831 737.382,721.761 734.021,723.3C732.627,723.854 731.214,724.368 729.798,724.854C728.036,725.464 726.238,725.854 724.407,726.159C720.805,726.563 717.184,726.804 713.564,726.963C709.829,727.124 706.111,726.874 702.38,726.87C698.126,726.858 693.872,726.956 689.622,727.038C687.658,727.077 685.693,727.127 683.732,727.061C682.313,727.012 680.888,726.877 679.476,726.706C676.714,726.249 674.017,725.505 671.422,724.46C670.408,723.987 669.462,723.446 668.547,722.804C667.904,722.277 667.314,721.71 666.772,721.075C666.224,720.29 665.784,719.462 665.39,718.591C664.682,716.869 664.03,715.101 663.638,713.28C663.214,711.292 662.937,709.262 662.638,707.251L662.638,707.26C662.482,705.905 662.353,704.545 662.138,703.198C661.876,701.549 661.525,699.928 661.142,698.303C661.138,698.288 661.115,698.295 661.118,698.311C661.473,699.998 661.788,701.672 662.023,703.378C662.022,703.376 662.022,703.375 662.021,703.374C662.158,704.612 662.286,705.85 662.372,707.092C662.458,708.252 662.376,709.424 662.357,710.588C662.314,712.952 662.236,715.342 662.326,717.706C662.411,719.866 662.794,722.049 663.837,723.959C664.404,724.995 665.177,725.909 665.935,726.803C666.724,727.737 667.583,728.612 668.54,729.374C670.474,730.917 672.685,732.006 674.904,733.073C677.107,734.135 679.31,735.206 681.642,735.952C686.865,737.62 692.259,738.42 697.693,739.045C699.935,739.303 702.185,739.499 704.423,739.792L704.326,739.778C705.721,739.965 707.115,740.148 708.509,740.334C708.461,740.328 708.412,740.321 708.365,740.314C710.188,740.555 712.011,740.775 713.845,740.956C715.939,741.159 718.056,740.983 720.146,740.788C724.74,740.35 729.326,739.756 733.822,738.702C736.173,738.147 738.361,737.053 740.552,736.057C742.197,735.315 743.845,734.581 745.493,733.842C747.306,733.034 748.896,731.776 750.517,730.655C751.546,729.944 752.62,729.344 753.742,728.815C754.521,728.543 755.32,728.328 756.115,728.1C756.602,727.963 757.088,727.833 757.578,727.717C758.106,727.811 758.637,727.884 759.048,727.877C760.517,727.854 762.314,727.557 763.583,726.729C765.4,725.545 766.677,724.092 767.345,722.002C767.583,721.268 767.622,720.491 767.677,719.721C767.779,718.319 767.216,717.229 766.693,715.999C766.513,715.577 766.247,715.217 765.99,714.838C765.431,714.03 764.837,713.233 764.181,712.499C763.466,711.69 762.759,710.885 762.083,710.045C760.751,708.389 759.4,706.752 758.056,705.104C756.615,703.338 755.079,701.706 753.447,700.112C751.919,698.612 750.56,696.94 749.052,695.42C747.326,693.682 745.572,691.936 743.685,690.37C742.724,689.577 741.747,688.815 740.759,688.057C739.536,687.116 738.271,686.409 736.845,685.811C736.279,685.577 735.63,685.51 735.025,685.444C734.216,685.354 733.423,685.307 732.611,685.284C732.32,685.275 732.03,685.272 731.739,685.272C730.171,685.272 728.606,685.384 727.04,685.483" style="fill-rule:nonzero;"/>
        <path d="M914.26,709.802C914.267,709.811 914.274,709.821 914.281,709.83C914.274,709.821 914.267,709.812 914.26,709.802M841.132,709.799L841.131,709.799C841.13,709.8 841.129,709.801 841.127,709.802C841.129,709.801 841.13,709.8 841.132,709.799M858.158,697.884C856.483,697.962 854.776,698.704 853.354,699.536C852.377,700.114 851.455,700.915 850.569,701.618C849.834,702.197 849.127,702.802 848.428,703.423C847.615,704.145 846.806,704.87 845.996,705.592C845.034,706.386 844.115,707.236 843.182,708.067C842.566,708.599 841.945,709.125 841.317,709.645C840.627,710.124 839.842,710.592 839.658,711.474C839.467,712.383 839.782,713.208 840.381,713.713C840.254,713.961 840.133,714.211 840.018,714.462C839.397,715.822 838.815,717.204 838.358,718.626C837.889,720.083 837.787,721.654 837.854,723.173C837.959,725.54 838.514,727.767 839.799,729.782C840.76,731.29 842.076,732.458 843.397,733.63C844.537,734.646 845.604,735.622 846.846,736.536C847.963,737.353 849.197,738.005 850.436,738.622C852.924,739.864 855.475,741.083 858.115,741.962C859.944,742.564 861.819,742.978 863.635,743.622C866.612,744.685 869.686,745.47 872.682,746.49C873.783,746.865 874.865,747.251 875.998,747.517C877.396,747.845 878.814,747.907 880.231,748.047C882.161,748.327 884.09,748.625 886.026,748.857C887.664,749.054 889.308,749.157 890.95,749.3C891.826,749.478 892.683,749.717 893.565,749.884C895.315,750.22 897.123,750.407 898.908,750.388C901.42,750.361 903.924,750.349 906.428,750.177C912.546,749.754 918.615,749.11 924.688,748.26C925.557,748.151 926.419,748.068 927.299,748.161C927.179,748.145 927.06,748.129 926.94,748.113C927.731,748.206 928.464,748.23 929.334,747.99C931.233,747.47 932.701,745.923 933.28,744.072C933.748,742.572 933.674,740.943 933.596,739.388C933.49,737.384 933.209,735.357 932.756,733.4C931.924,729.802 930.815,726.341 929.104,723.06C928.256,721.435 927.026,719.911 925.787,718.572C924.471,717.15 923.065,715.849 921.615,714.568C918.799,712.072 915.811,709.657 912.518,707.825C912.506,707.818 912.494,707.833 912.502,707.845C913.132,708.506 913.731,709.182 914.322,709.883C914.571,710.203 914.816,710.52 915.065,710.841C915.03,710.798 914.998,710.755 914.967,710.716C917.825,714.65 920.585,718.612 922.593,723.046C923.107,724.481 923.497,725.893 923.766,727.388C924.127,730.639 924.199,733.972 923.979,737.238C922.41,736.947 920.842,736.658 919.26,736.427C915.826,735.923 912.381,735.552 908.924,735.263C906.268,735.04 903.635,734.947 900.967,734.935C899.787,734.927 898.615,734.861 897.436,734.896C895.972,734.935 894.529,735.181 893.089,735.424C892.569,735.449 892.058,735.439 891.536,735.403C889.32,735.043 887.13,734.583 884.948,734.04C882.862,733.518 880.822,733.202 878.704,732.915C879.174,732.978 879.642,733.039 880.112,733.103C878.315,732.81 876.533,732.212 874.815,731.634C873.737,731.271 872.643,730.954 871.553,730.63C870.451,730.298 869.385,729.907 868.268,729.642C866.147,729.142 864.084,728.497 861.944,728.079C859.597,727.616 857.218,727.114 854.969,726.287C853.343,725.54 851.759,724.69 850.285,723.677C849.964,723.401 849.657,723.114 849.365,722.807C849.308,722.712 849.253,722.616 849.199,722.519C849.177,722.447 849.157,722.374 849.138,722.302C849.123,721.667 849.158,721.029 849.217,720.395C849.465,719.083 849.85,717.823 850.326,716.577C851.081,714.979 851.996,713.5 853.039,712.074C854.879,709.812 856.948,707.675 859.164,705.761C859.78,705.357 860.363,704.908 860.865,704.419C860.853,704.41 860.841,704.4 860.829,704.391C861.541,703.725 861.987,702.838 861.987,701.712C861.987,699.744 860.326,697.881 858.306,697.881C858.257,697.881 858.208,697.882 858.158,697.884" style="fill-rule:nonzero;"/>
        <path d="M709.068,699.481C709.098,699.494 709.129,699.506 709.158,699.52C709.128,699.506 709.098,699.494 709.068,699.481M700.099,698.399C700.077,698.453 700.055,698.506 700.032,698.56C700.054,698.506 700.077,698.453 700.099,698.399M703.272,693.513C703.32,694.097 703.422,694.672 703.572,695.219C703.675,695.592 703.815,695.961 703.975,696.327C703.933,696.865 703.909,697.406 703.912,697.958C703.916,699.008 703.841,700.063 703.767,701.11C703.588,703.606 703.314,706.086 703.068,708.575C702.857,710.766 702.74,712.965 702.716,715.169L702.716,715.176C702.535,714.989 702.36,714.796 702.185,714.595C701.451,713.541 700.842,712.439 700.315,711.268C699.997,710.434 699.733,709.607 699.551,708.732C699.491,707.931 699.504,707.158 699.582,706.356C699.77,705.347 700.035,704.396 700.404,703.441C700.797,702.583 701.251,701.78 701.756,700.981L701.697,701.063C702.002,700.622 702.349,700.223 702.744,699.864C702.752,699.856 702.744,699.836 702.732,699.844C701.263,700.362 699.94,701.154 698.805,702.159C699.113,701.025 699.485,699.91 699.93,698.808C700.685,697.19 701.565,695.7 702.624,694.269C702.836,694.01 703.052,693.758 703.272,693.513M712.103,684.079C711.244,684.137 710.388,684.243 709.541,684.399C708.884,684.676 708.232,684.954 707.576,685.231C706.341,685.961 705.357,686.946 704.627,688.18C704.004,689.012 703.606,689.998 703.402,691.034C702.847,691.357 702.308,691.704 701.787,692.063C694.869,696.825 691.341,704.833 689.634,712.809C688.689,717.235 689.24,721.747 690.396,726.079C690.877,727.883 691.49,729.563 692.322,731.251C692.873,732.36 693.677,733.301 694.494,734.231C695.88,735.813 697.822,736.622 699.724,737.36C700.478,737.653 701.123,737.821 701.916,737.942C703.748,738.219 705.302,738.434 707.111,738.286C708.298,738.176 709.478,738.004 710.646,737.77C711.795,737.497 712.892,737.071 713.935,736.493C715.365,735.883 716.455,735.012 717.666,733.965C718.513,733.227 719.904,731.516 720.252,730.79C720.756,729.758 721.213,728.704 721.623,727.626C721.916,726.532 722.088,725.418 722.138,724.282C722.213,723.696 722.265,723.109 722.322,722.524C722.534,721.246 722.763,719.966 722.838,718.672C722.916,717.36 722.959,716.059 722.966,714.743C722.982,712.498 722.829,710.256 722.621,708.025C723.332,705.959 723.718,703.872 723.951,701.657C724.056,700.649 723.963,699.626 723.838,698.629C723.638,697.063 723.404,695.563 722.943,694.051C721.939,690.766 720.099,687.543 717.154,685.641C715.88,684.821 714.074,684.065 712.468,684.065C712.345,684.065 712.223,684.069 712.103,684.079" style="fill-rule:nonzero;"/>
        <path d="M884.397,716.185C884.344,717.427 884.165,718.669 884.016,719.901C883.672,722.185 883.319,724.431 882.589,726.606C882.196,727.331 881.784,728.031 881.327,728.716C880.937,729.15 880.532,729.559 880.103,729.951C879.708,730.202 879.307,730.43 878.892,730.642C878.194,730.869 877.495,731.056 876.776,731.208C876.189,731.252 875.603,731.268 875.014,731.254C874.831,731.244 874.648,731.232 874.465,731.218C874.319,731.185 874.175,731.149 874.031,731.112C874.061,730.981 874.09,730.852 874.119,730.721C874.394,729.464 874.833,728.27 875.292,727.074C876.46,724.533 877.777,722.121 879.346,719.812C879.995,719.049 880.675,718.337 881.426,717.666C882.103,717.216 882.8,716.821 883.527,716.462C883.816,716.363 884.106,716.271 884.397,716.185M875.99,705.131C872.885,707.35 870.362,710.264 868.553,713.623C866.615,717.213 865.826,721.233 864.971,725.182C864.898,725.517 864.824,725.854 864.752,726.193C864.372,726.812 864,727.437 863.639,728.069C861.697,731.467 862.768,735.311 865.213,738.116C867.588,740.846 871.014,742.577 874.518,743.319C876.475,743.737 878.475,743.85 880.459,743.631C881.612,743.502 882.694,743.331 883.807,743.045C884.886,742.768 885.897,742.225 886.916,741.788C887.725,741.44 888.439,740.889 889.143,740.373C890.127,739.647 891.029,738.905 891.908,738.061C893.186,736.834 894.229,735.315 895.244,733.873C896.947,731.456 898.24,728.565 898.869,725.678C899.51,722.733 899.675,719.702 899.791,716.698C899.834,715.569 899.889,714.44 899.901,713.311C899.939,708.967 897.468,704.963 893.744,702.827C891.739,701.677 889.553,701.183 887.345,701.183C883.314,701.183 879.209,702.829 875.99,705.131" style="fill-rule:nonzero;"/>
        <path d="M739.801,789.485C739.793,789.538 739.786,789.589 739.779,789.641C739.785,789.589 739.792,789.538 739.801,789.485M741.254,784.985C741.238,785.026 741.221,785.066 741.204,785.106C741.221,785.066 741.237,785.026 741.254,784.985M744.508,778.497C742.574,780.219 740.602,781.977 739.035,784.051C738.254,785.087 737.571,786.176 737.012,787.348C736.676,788.048 736.391,788.762 736.172,789.508C735.746,790.981 736.313,792.438 736.977,793.727C737.891,795.505 740.039,796.692 741.738,797.579C742.856,798.165 744.047,798.63 745.242,799.036C747.973,799.969 750.629,799.989 753.481,799.887C753.492,799.883 753.496,799.868 753.485,799.864C749.716,797.826 745.663,796.057 742.197,793.504C741.572,792.976 740.997,792.423 740.466,791.799C740.281,791.541 740.113,791.269 739.961,790.985L740.16,791.454C739.97,791.105 739.835,790.739 739.755,790.356C739.745,790.171 739.747,789.985 739.762,789.799C740.047,788.224 740.551,786.709 741.154,785.23C742.196,782.953 743.414,780.756 744.528,778.512C744.53,778.504 744.522,778.495 744.514,778.495C744.512,778.495 744.509,778.496 744.508,778.497" style="fill-rule:nonzero;"/>
        <path d="M827.571,801.511L827.127,801.57L827.571,801.511ZM842.627,791.722C842.634,791.771 842.639,791.82 842.645,791.868C842.639,791.82 842.633,791.771 842.627,791.722M841.529,788.261C841.545,788.298 841.559,788.334 841.574,788.37C841.559,788.334 841.544,788.298 841.529,788.261M839.326,784.8C840.112,785.99 840.913,787.165 841.595,788.421C842.078,789.609 842.438,790.812 842.67,792.074C842.782,793.071 842.823,794.048 842.745,795.046C842.657,795.399 842.558,795.738 842.443,796.077C842.26,796.431 842.064,796.765 841.846,797.094C841.544,797.422 841.227,797.726 840.892,798.014C839.839,798.724 838.722,799.328 837.573,799.865C836.861,800.101 836.146,800.267 835.409,800.399C833.006,800.7 830.612,801.022 828.218,801.411C828.168,801.417 828.118,801.423 828.069,801.429C826.944,801.433 825.897,801.714 824.928,802.277C823.537,803.093 822.498,804.441 822.069,805.995C821.365,808.546 822.455,811.788 824.928,813.023C827.213,814.159 828.998,813.913 831.381,813.55C831.533,813.527 831.684,813.499 831.835,813.469C832.675,813.391 833.514,813.303 834.354,813.183C836.334,812.902 838.217,812.284 839.975,811.308C842.274,810.034 844.112,808.254 845.356,806.091C845.876,805.366 846.305,804.568 846.651,803.691C847.522,801.468 847.912,799.011 847.776,796.628C847.776,796.616 847.764,796.609 847.756,796.616C847.536,796.868 847.308,797.108 847.074,797.339C846.902,795.667 846.494,794.01 845.897,792.519C845.373,791.214 844.721,790.034 843.877,788.913C842.615,787.238 841.002,786.034 839.346,784.784C839.343,784.783 839.342,784.782 839.339,784.782C839.33,784.782 839.323,784.794 839.326,784.8" style="fill-rule:nonzero;"/>
        <path d="M764.555,793.672C763.225,794.379 762.059,795.708 761.313,797.167C760.934,797.294 760.552,797.449 760.16,797.629C759.508,797.93 758.797,798.672 758.41,799.254C757.981,799.891 757.727,800.523 757.485,801.246C756.961,802.828 757.656,804.641 758.422,805.996C759.168,807.328 760.555,808.348 761.785,809.187C763.199,810.148 764.934,810.707 766.598,811.016C766.836,811.06 767.072,811.097 767.305,811.127C769.291,811.815 771.465,811.911 773.43,811.219C774.672,810.781 775.653,810.238 776.629,809.352C777.313,808.73 777.824,807.988 778.383,807.262C778.791,806.728 779.073,806.123 779.257,805.483C779.723,804.408 779.99,803.245 779.946,802.27C779.828,799.82 779.145,797.641 777.457,795.805C775.957,794.172 774.114,793.137 771.996,792.52C771.264,792.306 770.528,792.21 769.798,792.21C767.97,792.21 766.176,792.81 764.555,793.672" style="fill-rule:nonzero;"/>
        <path d="M809.645,801.165C809.658,801.194 809.67,801.224 809.683,801.254L809.682,801.254C809.67,801.224 809.658,801.194 809.645,801.165M809.793,801.044C809.799,801.082 809.805,801.121 809.809,801.159C809.804,801.121 809.799,801.082 809.793,801.044M810.508,800.7C810.433,800.761 810.356,800.82 810.278,800.877C810.355,800.817 810.432,800.759 810.508,800.7M810.218,800.54C810.18,800.644 810.138,800.745 810.091,800.844C810.133,800.742 810.175,800.642 810.218,800.54M805.43,788.86C804.29,789.095 803.278,789.474 802.215,789.997C801.343,790.431 800.011,791.212 799.457,791.919C798.886,792.634 798.324,793.356 797.77,794.087C797.079,795.267 796.386,797.239 796.442,798.622C796.489,799.77 796.598,800.895 796.968,801.989C797.332,803.056 797.992,804.394 798.805,805.341C799.177,806.186 799.687,806.952 800.266,807.423C801.632,808.536 803.032,809.438 804.86,809.489C805.129,809.496 805.393,809.486 805.649,809.461C806.692,809.777 807.898,809.796 808.965,809.774C810.324,809.747 811.989,809.31 813.168,808.618C813.727,808.29 814.247,807.887 814.715,807.426C815.563,807.043 816.324,806.506 817.114,805.86C819.79,803.669 819.848,799.517 819.136,796.481C818.77,794.931 817.761,793.235 816.656,792.087C815.153,790.52 813.465,789.61 811.41,788.954C810.492,788.66 809.478,788.539 808.46,788.539C807.42,788.539 806.379,788.665 805.43,788.86" style="fill-rule:nonzero;"/>
        <path d="M729.726,816.186C726.55,819.413 723.542,822.815 721.285,826.756C719.39,830.065 717.785,833.682 717.492,837.514C717.492,837.526 717.503,837.534 717.511,837.526C719.964,834.627 721.464,831.221 723.324,827.952C724.308,826.229 725.175,824.444 726.171,822.725C727.413,820.581 728.601,818.397 729.746,816.202C729.748,816.193 729.741,816.182 729.733,816.182C729.73,816.182 729.728,816.183 729.726,816.186" style="fill-rule:nonzero;"/>
        <path d="M850.118,835.625L850.134,835.739C850.128,835.701 850.123,835.663 850.118,835.625M848.392,826.345C848.942,829.366 849.638,832.367 850.086,835.404C850.465,838.531 850.043,841.573 849.845,844.685C849.72,846.618 849.736,848.563 849.888,850.497C850.173,854.095 850.99,857.774 853.572,860.438C853.576,860.446 853.587,860.442 853.591,860.431C854.153,858.085 854.677,855.743 855,853.353C855.498,849.805 855.637,846.256 855.115,842.696C854.236,836.759 851.493,831.407 848.411,826.337C848.409,826.331 848.405,826.329 848.402,826.329C848.395,826.329 848.389,826.337 848.392,826.345" style="fill-rule:nonzero;"/>
        <path d="M785.8,822.561C785.202,824.916 784.626,827.293 784.143,829.674C783.846,830.404 783.565,831.138 783.3,831.881C782.573,833.92 781.652,836.514 782.491,838.608C782.984,839.838 783.902,840.76 785.316,840.76C786.995,840.76 788.144,839.42 788.249,837.827C788.293,837.161 788.228,836.481 788.129,835.805C788.109,834.958 788.107,834.11 788.046,833.264C787.972,832.252 787.831,831.245 787.667,830.241C787.421,828.699 786.96,827.191 786.412,825.727C786.218,824.671 786.023,823.616 785.823,822.561C785.821,822.555 785.816,822.552 785.81,822.552C785.805,822.552 785.8,822.555 785.8,822.561" style="fill-rule:nonzero;"/>
        <path d="M742.994,861.809C742.899,861.796 742.804,861.784 742.708,861.771C742.804,861.786 742.899,861.797 742.994,861.809M771.981,852.361C770.762,852.553 769.853,853.421 768.956,854.208C768.406,854.559 767.841,854.89 767.256,855.178C765.322,855.856 763.304,856.171 761.282,856.494C759.37,856.796 757.457,857.118 755.542,857.411C751.792,857.895 748.021,858.21 744.274,858.74C742.501,858.994 740.723,859.244 738.954,859.552C736.989,859.892 735.091,860.552 733.2,861.173C733.188,861.177 733.188,861.197 733.204,861.197C734.977,861.201 736.751,861.189 738.524,861.318C740.048,861.427 741.579,861.619 743.095,861.822C743.061,861.818 743.028,861.813 742.994,861.809C748.666,862.573 754.378,863.301 760.083,863.716C762.395,863.884 764.645,864.126 766.966,863.872C768.356,863.716 769.731,863.497 771.079,863.119C771.893,862.89 772.661,862.532 773.429,862.178C773.715,862.414 773.998,862.655 774.274,862.9C774.895,863.451 775.524,863.958 776.196,864.458C776.856,864.951 777.833,865.271 778.548,865.552C780.138,866.177 782.11,865.638 783.52,864.837C783.852,864.65 784.165,864.431 784.501,864.244C785.001,863.966 785.449,863.611 785.931,863.307C787.685,863.217 789.497,863.423 791.239,863.64C792.837,863.875 794.404,864.168 795.977,864.568C797.852,865.044 799.72,865.564 801.595,866.044C803.259,866.466 804.88,867.033 806.548,867.435C808.325,867.861 810.118,868.181 811.923,868.462C815.634,869.04 819.368,869.572 823.122,869.751C826.817,869.926 830.551,870.036 834.22,870.505L834.208,870.505C834.778,870.583 835.348,870.669 835.915,870.755C835.931,870.759 835.938,870.74 835.927,870.736C834.333,869.978 832.743,869.236 831.091,868.615C829.579,868.044 828.044,867.537 826.528,866.97C824.931,866.376 823.337,865.798 821.704,865.318C820.056,864.837 818.477,864.138 816.895,863.478C817.122,863.576 817.348,863.669 817.575,863.767C815.544,862.91 813.507,862.074 811.472,861.232C809.51,860.381 807.561,859.496 805.583,858.673C805.911,858.81 806.235,858.947 806.559,859.083C804.048,858.009 801.595,856.81 799.048,855.818C796.634,854.876 794.063,854.138 791.524,853.662C788.669,853.126 785.766,852.767 782.888,853.247C781.706,853.445 780.736,853.959 779.825,854.594C779.155,854.128 778.482,853.667 777.747,853.302C777.098,852.982 776.431,852.665 775.743,852.451C775.107,852.252 774.502,852.178 773.896,852.178C773.271,852.178 772.644,852.257 771.981,852.361" style="fill-rule:nonzero;"/>
        <path d="M786.154,870.375C784.795,870.466 783.441,870.648 782.091,870.837C780.312,871.056 778.521,871.24 776.728,871.362C775.133,871.262 773.541,871.102 771.939,871.066C769.848,871.023 767.823,871.331 765.784,871.721C765.211,871.71 764.638,871.686 764.064,871.641C764.052,871.641 764.045,871.66 764.056,871.664C767.904,873.422 771.955,874.973 776.162,875.594C778.498,875.941 780.834,875.992 783.193,876.074C784.267,876.113 785.338,876.211 786.408,876.281C787.517,876.355 789.021,876.598 790.099,876.211L790.098,876.209C790.572,876.087 791.024,875.838 791.416,875.445C792.701,874.16 792.56,871.617 790.81,870.762C790.015,870.371 789.133,870.265 788.241,870.265C787.539,870.265 786.831,870.33 786.154,870.375" style="fill-rule:nonzero;"/>
        <path d="M759.785,890.403C759.804,890.388 759.823,890.375 759.841,890.36C759.823,890.375 759.804,890.389 759.785,890.403M759.376,890.717C759.513,890.613 759.649,890.508 759.785,890.403C759.648,890.508 759.511,890.613 759.376,890.717M725.044,901.24C725.039,901.241 725.033,901.242 725.028,901.243C725.051,901.24 725.074,901.237 725.097,901.234L725.044,901.24ZM744.513,886.018C739.872,887.089 735.552,889.096 731.626,891.764C730.708,892.389 729.79,892.995 728.946,893.725C728.173,894.397 727.556,895.296 726.985,896.132C725.876,897.76 724.86,899.456 723.688,901.046C723.688,901.045 723.689,901.045 723.689,901.045C723.568,901.202 723.444,901.354 723.317,901.507C723.309,901.518 723.317,901.53 723.329,901.53C723.893,901.415 724.46,901.326 725.028,901.243C725.013,901.245 724.997,901.247 724.981,901.249L725.044,901.24C725.088,901.234 725.132,901.227 725.177,901.221C725.151,901.226 725.124,901.23 725.097,901.234C726.62,901.041 728.14,900.797 729.622,900.393C731.019,900.01 732.293,899.362 733.591,898.757C734.337,898.513 735.087,898.373 735.859,898.251C739.795,897.801 743.811,897.423 747.657,896.464C752.141,895.346 756.356,893.065 759.989,890.245C759.94,890.283 759.89,890.322 759.841,890.36C760.095,890.165 760.348,889.968 760.602,889.772C760.419,889.917 760.235,890.057 760.056,890.198C761.686,888.947 763.486,888 765.36,887.162C766.46,886.724 767.576,886.465 768.74,886.261C770.002,886.097 771.25,886.021 772.52,885.995C772.536,885.995 772.536,885.971 772.52,885.971C768.134,885.405 763.681,885.667 759.286,885.214C757.585,885.04 755.879,884.948 754.175,884.948C750.933,884.948 747.698,885.281 744.513,886.018" style="fill-rule:nonzero;"/>
        <path d="M802.948,865.488C801.784,865.699 800.632,865.933 799.503,866.297C797.007,867.093 794.596,868.125 792.245,869.269C790.276,870.23 788.327,871.211 786.417,872.273C785.79,872.618 785.166,872.984 784.529,873.316C784.107,873.248 783.686,873.177 783.264,873.105C783.249,873.105 783.241,873.129 783.257,873.133C783.65,873.212 784.043,873.29 784.436,873.364C784.222,873.474 784.006,873.581 783.788,873.679C783.798,873.675 783.81,873.672 783.821,873.668C783.581,873.764 783.34,873.822 783.081,873.879C783.069,873.883 783.069,873.902 783.081,873.902C783.831,874.043 784.503,874.418 785.261,874.504C785.995,874.582 786.729,874.554 787.468,874.523C790.421,874.393 793.381,873.959 796.308,873.543C796.967,873.456 797.628,873.366 798.286,873.273C798.731,873.214 799.175,873.152 799.619,873.089C800.057,873.03 800.496,872.969 800.935,872.907C801.381,872.849 801.825,872.791 802.271,872.73C804.431,872.504 806.656,872.372 808.78,871.929C808.775,871.924 808.77,871.917 808.765,871.91C809.553,871.715 810.26,871.225 810.725,870.429C811.167,869.675 811.288,868.758 811.057,867.918C810.733,866.746 809.87,866.047 808.78,865.64C807.89,865.31 806.91,865.185 805.921,865.185C804.912,865.185 803.893,865.315 802.948,865.488" style="fill-rule:nonzero;"/>
        <path d="M787.452,857.953C787.204,857.988 786.956,858.025 786.71,858.063C786.403,858.059 786.095,858.053 785.788,858.043C782.192,857.934 778.869,860.392 777.585,863.674C777.255,864.027 776.964,864.414 776.722,864.828C775.811,866.383 775.565,868.277 776.046,870.016C776.542,871.824 777.659,872.98 779.136,874.039C781.335,875.613 784.268,875.777 786.893,875.976C787.987,876.058 789.089,876.168 790.186,876.18C791.28,876.191 792.374,876.164 793.464,876.133C793.549,876.131 793.634,876.129 793.719,876.126C794.152,876.182 794.585,876.235 795.02,876.283C795.994,876.502 796.983,876.682 797.981,876.597C799.5,876.588 801.023,876.185 802.307,875.433C803.585,874.676 804.604,873.66 805.358,872.383C805.643,871.707 805.929,871.027 806.214,870.351C806.62,868.848 806.62,867.34 806.214,865.832C806.19,865.672 806.163,865.508 806.139,865.344C805.714,863.836 804.948,862.523 803.843,861.41C802.729,860.305 801.417,859.539 799.909,859.113C799.244,858.873 798.553,858.697 797.849,858.564C796.584,858.101 795.248,857.923 793.889,857.766C793.094,857.674 792.311,857.632 791.534,857.632C790.178,857.632 788.834,857.757 787.452,857.953" style="fill-rule:nonzero;"/>
        <path d="M834.774,495.991C837.037,496.899 839.179,498.142 841.063,499.591C841.299,498.826 841.314,497.994 841.129,497.171C841.126,497.159 841.126,497.147 841.122,497.136C840.919,496.409 840.551,495.776 840.02,495.241C839.161,494.382 838.161,494.093 836.985,493.987C836.188,493.914 835.388,493.863 834.587,493.827C834.678,494.546 834.74,495.268 834.774,495.991" style="fill-rule:nonzero;"/>
        <path d="M612.981,634.557C610.594,639.256 608.317,644.073 606.524,649.034C605.579,651.647 604.668,654.264 603.895,656.936C603.137,659.569 602.543,662.229 601.997,664.909C600.876,670.397 600.583,676.026 599.942,681.577C599.161,686.643 598.321,691.702 597.461,696.756C597.461,696.772 597.481,696.776 597.489,696.764C598.723,693.147 599.993,689.545 601.227,685.928C602.395,682.498 603.27,678.995 604.059,675.455C604.883,671.752 605.829,668.096 606.961,664.471C608.063,660.967 609.368,657.569 610.774,654.186C611.84,651.83 612.93,649.51 614.059,647.19C615.278,644.686 616.672,642.264 618.004,639.823C618.889,638.205 619.792,636.597 620.709,634.995C618.172,634.94 615.734,634.525 613.393,633.75C613.255,634.019 613.118,634.287 612.981,634.557" style="fill-rule:nonzero;"/>
        <path d="M971.286,859.768C969.391,863.87 967.559,867.967 964.817,871.577L964.817,871.573C963.04,873.866 961.325,876.163 959.821,878.651C958.247,881.237 956.684,883.811 954.891,886.256C953.962,887.416 952.977,888.53 951.977,889.635C950.688,891.057 949.466,892.534 948.177,893.952C945.813,896.545 943.552,899.225 941.243,901.866C936.692,907.065 931.864,911.92 926.528,916.307C924.903,917.502 923.227,918.612 921.552,919.725C919.493,921.096 917.45,922.491 915.391,923.862C911.266,926.6 907.009,929.12 902.86,931.823C898.841,934.436 894.731,936.901 890.54,939.229C888.395,940.424 886.157,941.42 883.985,942.561C881.649,943.791 879.364,945.104 877.059,946.393C872.919,948.709 868.641,950.737 864.368,952.795C860.005,954.897 855.626,956.952 851.188,958.885C846.72,960.717 842.188,962.373 837.724,964.206C832.802,966.221 827.891,968.268 822.989,970.327C818.431,972.241 813.884,974.151 809.263,975.905C809.501,975.905 809.735,975.901 809.97,975.897L814.423,975.862C815.235,975.854 816.044,975.846 816.856,975.85C817.259,975.85 817.653,975.858 818.044,975.885C818.45,975.889 818.868,975.94 819.325,976.049C819.321,976.057 819.321,976.065 819.317,976.073C819.72,976.174 820.11,976.319 820.497,976.526C820.786,976.53 821.071,976.53 821.356,976.534C822.579,976.553 823.778,976.608 824.993,976.745C826.278,976.893 827.302,977.143 828.501,977.545C829.368,977.834 830.153,978.272 830.817,978.831C830.993,978.862 831.165,978.889 831.341,978.916C831.759,978.987 832.177,979.049 832.595,979.135C833.329,979.284 833.981,979.581 834.673,979.873C835.325,980.151 835.864,980.846 836.177,981.534C836.419,981.428 836.665,981.327 836.911,981.221C846.743,977.116 856.735,973.416 866.442,969.014C871.083,966.909 875.669,964.721 880.204,962.401C884.681,960.108 889.282,958.073 893.735,955.729C897.02,953.997 900.299,952.273 903.487,950.383C904.494,949.66 905.537,948.983 906.591,948.323C907.095,947.717 907.704,947.19 908.399,946.78C908.516,946.635 908.63,946.487 908.747,946.342C908.993,946.045 909.29,945.811 909.591,945.569C910.825,944.569 911.993,943.842 913.419,943.194C913.814,942.965 914.221,942.78 914.64,942.637C916.3,941.343 917.946,940.03 919.598,938.733C923.723,935.553 927.86,932.358 931.614,928.741C933.352,927.069 934.938,925.233 936.528,923.42C938.427,921.26 940.231,919.022 941.907,916.686C943.274,914.776 944.516,912.764 945.786,910.788C947.071,908.788 948.329,906.764 949.559,904.729C950.86,902.569 952.149,900.397 953.485,898.256C954.852,896.069 956.364,893.987 957.645,891.745C959.614,888.307 961.212,884.69 962.665,881.01C964.095,877.389 965.579,873.791 967.087,870.206C967.071,870.248 967.052,870.288 967.036,870.331C967.282,869.733 967.54,869.143 967.794,868.549C967.794,868.541 967.798,868.538 967.802,868.53C967.802,868.526 967.802,868.522 967.806,868.518C969.032,865.627 970.188,862.709 971.309,859.776C971.309,859.768 971.302,859.76 971.294,859.76C971.29,859.76 971.286,859.764 971.286,859.768" style="fill-rule:nonzero;"/>
        <path d="M967.8,868.53C967.801,868.526 967.802,868.523 967.804,868.519C967.8,868.523 967.8,868.526 967.8,868.53" style="fill-rule:nonzero;"/>
        <path d="M967.803,868.521C967.812,868.501 967.82,868.481 967.829,868.461C967.82,868.481 967.812,868.501 967.803,868.521" style="fill-rule:nonzero;"/>
        <path d="M964.817,871.575C964.818,871.574 964.82,871.572 964.821,871.57C964.82,871.571 964.818,871.573 964.817,871.575" style="fill-rule:nonzero;"/>
        <path d="M689.606,940.023C690.633,945.39 692.075,950.609 693.852,955.773C693.975,956.129 694.1,956.485 694.227,956.839C694.685,956.741 695.144,956.687 695.594,956.687C695.782,956.687 695.965,956.695 696.149,956.714C697.426,956.847 698.696,957.035 699.958,957.246C699.993,957.238 700.032,957.228 700.068,957.22C698.326,954.742 696.702,952.179 695.094,949.617C693.133,946.496 691.274,943.316 689.629,940.015C689.628,940.009 689.625,940.007 689.622,940.007C689.615,940.007 689.606,940.015 689.606,940.023" style="fill-rule:nonzero;"/>
        <path d="M923.189,928.898C923.192,928.898 923.195,928.896 923.196,928.893C923.194,928.894 923.191,928.896 923.189,928.898M969.087,864.554C968.629,864.823 968.237,865.155 967.911,865.534C967.71,865.563 967.511,865.605 967.314,865.66C965.959,865.847 964.83,866.945 964.123,868.035C963.779,868.562 963.556,869.16 963.384,869.765C963.234,870.279 963.074,870.786 962.897,871.289C961.934,873.221 960.504,874.934 959.357,876.757C957.927,879.031 956.834,881.543 955.955,884.078C955.173,886.332 954.427,888.636 953.81,890.937C953.498,892.093 953.212,893.269 952.822,894.402C952.737,894.647 952.65,894.892 952.562,895.135C952.228,895.542 951.892,895.946 951.552,896.347C950.97,897.039 950.369,897.718 949.748,898.378C949.111,899.054 948.38,899.636 947.72,900.285C946.169,901.804 944.736,903.437 943.189,904.961C941.834,906.3 940.47,907.64 939.216,909.078C938.365,910.054 937.552,911.066 936.767,912.093C936.143,912.916 935.528,913.762 935.215,914.754L935.209,914.772C935.205,914.787 935.2,914.8 935.196,914.814C935.187,914.844 935.178,914.876 935.169,914.906C934.966,915.644 935.018,916.422 935.292,917.119C934.094,918.178 932.904,919.247 931.705,920.308C929.97,921.839 928.255,923.375 926.65,925.043C925.334,926.41 924.076,927.836 922.759,929.203C922.748,929.214 922.763,929.23 922.775,929.222C922.916,929.113 923.056,929 923.197,928.89C923.197,928.891 923.196,928.892 923.196,928.893C924.335,928.024 925.539,927.24 926.728,926.441C928.001,925.589 929.224,924.683 930.537,923.89C933.008,922.401 935.423,920.827 937.842,919.257C938.384,919.364 938.923,919.346 939.462,919.203C940.427,919.05 941.443,918.343 942.232,917.789C943.337,917.011 944.384,916.144 945.431,915.296C947.017,914.011 948.533,912.625 949.959,911.168C952.78,908.277 955.004,904.856 957.128,901.43C957.444,901.11 957.76,900.787 958.072,900.461C958.912,899.582 959.712,898.675 960.474,897.73C961.124,896.92 961.745,896.171 962.504,895.499C963.441,894.872 964.339,894.222 965.169,893.453C965.994,892.691 966.748,891.851 967.498,891.023C968.177,890.269 968.791,889.472 969.49,888.738C970.232,887.96 970.959,887.183 971.619,886.335C972.357,885.39 973.044,884.464 973.63,883.418C974.119,882.539 974.568,881.636 975.037,880.746C975.509,879.843 975.978,878.941 976.459,878.043C976.616,877.75 976.771,877.455 976.921,877.158L976.99,877.082C977.529,876.488 978.029,876.16 978.47,875.402C978.935,874.605 979.166,873.742 979.169,872.82C979.103,872.328 979.041,871.839 978.97,871.351C978.772,870.648 978.449,870.018 977.997,869.461C977.957,869.159 977.888,868.865 977.787,868.585C977.533,867.687 977.08,866.906 976.419,866.242C975.899,865.721 975.275,865.319 974.597,865.054C974.066,864.6 973.438,864.261 972.759,864.074C972.351,863.961 971.929,863.907 971.507,863.907C970.664,863.907 969.822,864.127 969.087,864.554" style="fill-rule:nonzero;"/>
        <path d="M997.013,692.062C996.751,694.175 996.521,696.277 996.493,698.41C996.47,700.234 996.501,702.058 996.451,703.882C996.408,705.492 996.302,707.097 996.13,708.699C995.876,710.167 995.576,711.628 995.29,713.093C994.935,714.933 994.638,716.785 994.31,718.628C994.009,720.328 993.638,722.011 993.349,723.71C993.005,725.707 992.701,727.707 992.411,729.71C992.095,731.925 991.833,734.14 991.658,736.371C991.513,738.226 991.54,740.113 991.579,741.972C991.622,743.929 991.72,745.882 991.728,747.843C991.736,749.664 991.579,751.468 991.361,753.273C991.013,755.792 990.681,758.351 990.056,760.816C989.716,762.14 989.326,763.449 989.001,764.777C988.665,766.167 988.376,767.566 988.075,768.96C987.497,771.621 986.904,774.25 986.579,776.957C986.419,778.289 986.353,779.636 986.255,780.972C986.15,782.449 985.993,783.921 985.81,785.39L985.81,785.386C985.697,786.222 985.544,787.027 985.771,787.855C985.775,787.875 985.802,787.89 985.822,787.875C986.216,787.601 986.075,787.753 986.325,787.156C986.486,786.777 986.642,786.398 986.798,786.023C986.806,786.007 986.783,786 986.779,786.011C986.533,786.566 986.286,787.113 986.029,787.656L985.829,787.785L985.724,787.363L985.724,787.375C985.716,787.07 985.736,786.769 985.783,786.472L985.783,786.484C986.259,783.207 987.478,780.054 988.642,776.968C989.15,775.621 989.701,774.289 990.232,772.945C990.763,771.597 991.247,770.226 991.794,768.878C992.72,766.726 993.689,764.593 994.802,762.531C995.376,761.472 995.958,760.421 996.439,759.32C997.06,757.89 997.638,756.449 998.165,754.984C999.001,752.648 999.701,750.265 1000.1,747.808C1000.53,745.14 1000.88,742.457 1001.24,739.773C1001.8,736.019 1002.66,732.308 1003.64,728.644C1004.59,725.066 1005.56,721.496 1006.53,717.925C1007.02,716.093 1007.49,714.253 1007.9,712.398C1008.4,710.121 1008.74,707.824 1009,705.503C1009.41,701.888 1009.5,698.24 1009.81,694.616C1009.53,694.452 1009.26,694.283 1009,694.109C1005.26,691.632 1001.72,688.816 998.349,685.859C998.186,685.715 998.023,685.572 997.859,685.429C997.494,687.627 997.288,689.85 997.013,692.062" style="fill-rule:nonzero;"/>
        <path d="M997.051,723.36C997.051,723.378 997.047,723.396 997.044,723.413C997.044,723.409 997.045,723.406 997.045,723.402C997.047,723.388 997.049,723.374 997.051,723.36M996.502,718.998C996.501,718.998 996.501,718.998 996.5,718.997C996.497,719.001 996.494,719.004 996.491,719.007C996.403,719.085 996.331,719.178 996.284,719.283C995.798,720.045 995.776,721.052 995.614,721.923C995.41,723.013 995.145,724.099 994.828,725.157C994.508,726.239 994.18,727.318 993.879,728.407C993.528,729.693 993.344,731.032 993.196,732.353C992.926,734.708 992.914,737.071 992.813,739.435C992.726,741.52 992.529,743.588 992.283,745.655C991.668,745.966 991.109,746.372 990.606,746.872C989.793,747.693 989.231,748.657 988.918,749.771C988.16,751.755 987.699,753.837 987.231,755.907C986.77,757.958 986.399,760.017 986.024,762.087C985.874,762.918 985.728,763.75 985.583,764.581C984.588,767.343 983.878,770.207 983.367,773.106C982.823,776.19 982.456,779.294 982.102,782.401C981.948,782.959 981.797,783.516 981.649,784.075C981.188,785.801 980.664,787.528 980.293,789.274C980.067,790.34 979.844,791.407 979.621,792.473C979.231,794.356 978.821,796.305 978.836,798.231C978.864,800.93 981.071,803.184 983.789,803.184C985.069,803.184 986.218,802.694 987.087,801.896C987.29,801.81 987.488,801.711 987.68,801.598C988.938,800.86 989.692,799.739 990.149,798.387C990.938,796.048 991.508,793.637 992.121,791.251C992.653,789.188 993.106,787.106 993.571,785.028C994.031,782.962 994.367,780.86 994.731,778.774C995.114,776.563 995.508,774.356 995.899,772.149C996.249,770.17 996.638,768.197 997.033,766.225C997.421,765.042 997.813,763.86 998.211,762.681C999.241,759.632 1000.53,756.657 1001.47,753.585C1001.69,752.924 1001.8,752.233 1001.81,751.513C1001.81,749.738 1001.07,748.039 999.821,746.817C999.822,746.787 999.823,746.757 999.824,746.728C999.934,744.193 999.781,741.65 999.551,739.126C999.317,736.546 998.851,733.989 998.478,731.425C998.397,730.488 998.321,729.551 998.328,728.61C998.336,727.54 998.426,726.474 998.453,725.4C998.485,724.255 998.488,723.114 998.453,721.97C998.422,720.982 998.504,719.747 997.754,718.997C997.588,718.831 997.373,718.757 997.157,718.757C996.919,718.757 996.679,718.847 996.502,718.998" style="fill-rule:nonzero;"/>
        <path d="M669.15,933.909L669.052,933.909C668.83,933.909 668.603,933.932 668.38,933.971C667.908,934.104 667.502,934.425 667.119,934.714C666.677,935.042 666.283,935.413 665.896,935.807C665.298,936.413 664.775,937.097 664.267,937.772C664.097,937.998 663.928,938.226 663.76,938.455C663.965,938.453 664.168,938.459 664.373,938.464L664.423,938.464C664.752,938.339 665.095,938.284 665.435,938.284C666.691,938.284 667.918,939.086 668.338,940.337C668.657,939.836 668.976,939.337 669.298,938.843C669.951,937.835 670.81,936.671 670.654,935.417C670.56,934.624 670.06,933.909 669.185,933.909L669.15,933.909Z" style="fill-rule:nonzero;"/>
        <path d="M670.548,939.194C669.939,940.044 669.333,940.894 668.725,941.744C668.75,941.759 668.776,941.775 668.801,941.792C669.394,940.93 669.988,940.071 670.571,939.206C670.577,939.197 670.569,939.189 670.559,939.189C670.555,939.189 670.551,939.191 670.548,939.194" style="fill-rule:nonzero;"/>
        <path d="M660.252,943.92C660.403,943.931 660.552,943.946 660.7,943.968C660.613,943.834 660.533,943.696 660.461,943.553C660.391,943.675 660.321,943.797 660.252,943.92" style="fill-rule:nonzero;"/>
        <path d="M910.329,937.488C909.407,937.781 908.552,938.156 907.86,938.847C906.977,939.73 906.477,940.914 906.27,942.121C905.95,943.961 905.739,945.781 905.645,947.629C905.501,948.155 905.356,948.681 905.209,949.207C905.667,948.908 906.129,948.614 906.595,948.324C907.095,947.715 907.704,947.191 908.399,946.781C908.517,946.633 908.63,946.488 908.747,946.343C908.993,946.047 909.29,945.812 909.591,945.57C910.825,944.57 911.993,943.843 913.419,943.195C914.308,942.68 915.258,942.383 916.266,942.31C916.211,941.779 916.054,941.15 915.954,940.683C915.528,938.711 913.493,937.312 911.513,937.308C911.11,937.308 910.712,937.367 910.329,937.488" style="fill-rule:nonzero;"/>
        <path d="M904.704,941.324C904.091,944.336 903.489,947.355 903.278,950.426C903.276,950.465 903.273,950.503 903.27,950.541C903.362,950.474 903.454,950.408 903.545,950.343C903.662,948.594 903.855,946.849 904.083,945.113C904.083,945.117 904.079,945.125 904.079,945.129C904.294,943.863 904.505,942.597 904.727,941.332C904.73,941.322 904.722,941.316 904.714,941.316C904.71,941.316 904.705,941.318 904.704,941.324" style="fill-rule:nonzero;"/>
        <path d="M820.481,492.697C819.637,492.888 818.786,493.034 817.932,493.163C814.578,493.43 811.194,493.215 807.84,493.092C804.317,492.963 800.797,492.759 797.274,492.65C795.633,492.599 793.989,492.517 792.356,492.717C790.731,492.92 789.098,493.06 787.461,493.154C783.958,493.357 780.446,493.47 776.938,493.627C775.254,493.705 773.579,493.822 771.899,493.97C770.813,494.068 769.653,494.224 768.575,494.443C767.751,494.607 766.95,494.806 766.153,495.08C764.34,495.697 762.594,496.537 760.915,497.451C759.705,498.107 758.492,498.718 757.244,499.285C755.736,499.881 754.213,500.426 752.661,500.912C750.778,501.502 748.852,502.025 747.008,502.724C744.79,503.568 742.626,504.486 740.52,505.58C739.7,506.006 738.868,506.431 738.094,506.935C737.7,507.193 737.309,507.451 736.918,507.709C736.744,507.825 736.573,507.927 736.401,508.021C735.941,507.999 735.486,507.991 735.02,507.998C734.43,508.006 733.86,508.088 733.309,508.271C732.633,508.498 731.813,508.717 731.235,509.076C730.243,509.697 729.301,510.381 728.344,511.056C727.403,511.724 726.45,512.373 725.45,512.951C724.436,513.54 723.398,514.054 722.339,514.551C719.098,515.867 715.785,517.032 712.606,518.498C711.008,519.232 709.415,519.982 707.872,520.834C706.27,521.72 704.727,522.662 703.2,523.662C701.864,524.537 700.586,525.502 699.293,526.431C697.829,527.478 696.321,528.451 694.801,529.416C691.961,531.213 688.981,532.787 686.004,534.342C684.454,535.154 682.868,535.931 681.379,536.845C679.954,537.717 678.602,538.666 677.251,539.646C674.508,541.638 671.59,543.388 668.731,545.209C667.254,546.146 665.782,547.092 664.336,548.072C663.02,548.967 661.735,549.908 660.442,550.83C657.594,552.861 654.684,554.799 651.86,556.853C649.618,558.49 647.481,560.24 645.493,562.174C643.751,563.857 642.184,565.693 640.637,567.552C638.856,569.693 637.266,571.99 635.719,574.299C634.455,576.184 633.197,578.056 631.846,579.878C629.881,582.363 627.87,584.815 625.852,587.26C623.493,590.111 621.114,592.955 618.938,595.955C618.012,597.236 617.251,598.701 616.626,600.15C616.258,601.006 615.879,601.857 615.606,602.744C615.356,603.549 615.141,604.357 614.95,605.177C614.571,606.814 614.239,608.455 613.922,610.103C613.629,611.635 613.497,613.201 613.352,614.752C613.314,615.176 613.271,615.605 613.228,616.03C612.622,620.218 612.009,624.399 611.512,628.599C611.278,630.592 611.141,632.595 610.977,634.595C610.774,637.115 610.528,639.627 610.223,642.134C610.223,642.15 610.247,642.154 610.247,642.138C610.883,637.701 611.274,633.236 611.794,628.783C611.79,628.799 611.79,628.81 611.786,628.822C612.153,626.162 612.555,623.502 612.977,620.849C613.176,619.607 613.364,618.361 613.622,617.127C613.89,615.835 614.305,614.618 614.782,613.389C615.548,611.633 616.356,609.876 617.29,608.201C618.28,606.429 619.377,604.743 620.603,603.128C622.646,600.548 625.095,598.316 627.454,596.025C629.817,593.732 632.18,591.439 634.532,589.135C637.032,586.689 639.481,584.217 641.774,581.576C643.961,579.056 646.044,576.455 648.329,574.017C649.52,572.744 650.739,571.51 652.004,570.306C652.92,569.438 653.898,568.643 654.884,567.856C657.529,565.949 660.239,564.142 662.93,562.299C665.626,560.447 668.364,558.689 671.149,556.986C674.192,555.123 677.176,553.181 680.153,551.22C682.93,549.392 685.856,547.802 688.731,546.138C691.739,544.392 694.708,542.595 697.629,540.709C700.485,538.865 703.262,536.912 706.083,535.017C708.864,533.154 711.688,531.322 714.586,529.642C716.176,528.72 717.778,527.826 719.426,527.002C720.934,526.248 722.477,525.56 724.024,524.885C726.797,523.677 729.575,522.467 732.235,521.017C733.485,520.338 734.786,519.677 735.95,518.849C736.497,518.455 737.336,517.963 737.739,517.506C737.997,517.217 738.251,516.927 738.504,516.634C739.11,515.951 739.348,515.502 739.704,514.748C739.777,514.593 739.847,514.436 739.915,514.276C742.019,513.729 744.209,513.488 746.329,513.021C748.934,512.451 751.508,511.763 754.075,511.041C756.579,510.334 759.043,509.463 761.461,508.513C762.61,508.06 763.758,507.615 764.903,507.15C766.173,506.635 767.406,506.055 768.643,505.469C769.947,505.016 771.278,504.757 772.643,504.541C775.88,504.152 779.125,503.807 782.36,503.4C785.668,502.986 789.02,502.623 792.356,502.81C795.586,502.994 798.852,502.756 802.075,502.552C805.727,502.318 809.348,501.951 812.977,501.467C815.615,501.118 818.238,500.663 820.864,500.26C824.656,499.801 828.504,499.673 832.317,499.58C834.579,499.521 836.833,499.388 839.071,498.986C840.118,498.802 841.161,498.603 842.2,498.388C842.661,498.295 843.118,498.201 843.579,498.111C844.076,498.019 844.565,497.888 845.061,497.784C845.752,497.759 846.454,497.79 847.153,497.818C848.409,497.875 849.666,497.928 850.893,497.657C850.904,497.656 850.915,497.655 850.926,497.654C851.836,497.564 852.348,496.556 851.676,495.838C850.754,494.853 849.379,494.4 848.165,493.888C848.282,493.937 848.4,493.988 848.517,494.038C847.767,493.724 847.012,493.447 846.247,493.177C845.317,492.853 844.329,492.787 843.364,492.978C843.049,493.042 842.735,493.103 842.42,493.161C840.778,493.315 839.124,493.294 837.473,493.291C835.65,493.291 833.837,493.274 832.021,493.08C829.505,492.697 826.997,492.289 824.454,492.131C824.314,492.122 824.173,492.117 824.034,492.117C822.825,492.117 821.654,492.431 820.481,492.697" style="fill-rule:nonzero;"/>
        <path d="M635.041,582.472C634.139,583.851 633.28,585.261 632.455,586.687C631.603,588.163 630.721,589.628 629.896,591.12C629.463,591.91 629.03,592.701 628.596,593.491C627.274,591.464 624.321,590.593 622.209,591.964L621.776,592.245C621.033,592.683 620.444,593.277 620.007,594.019C619.686,594.507 619.389,594.999 619.103,595.507C618.846,595.96 618.596,596.41 618.365,596.87C617.85,597.902 617.338,598.929 616.822,599.956C616.069,601.464 615.439,603.038 614.768,604.581C613.287,607.96 611.998,611.421 610.718,614.882C609.557,618.019 608.619,621.222 607.725,624.441C607.161,626.479 606.705,628.546 606.269,630.616C606.142,630.984 606.017,631.353 605.893,631.722C605.261,633.605 604.636,635.488 604.05,637.386C603.662,638.624 603.28,639.867 602.893,641.105C602.679,641.804 602.494,642.507 602.307,643.21C602.123,643.913 601.963,644.617 601.826,645.331C601.771,645.687 601.718,646.042 601.666,646.398C601.533,647.292 601.396,648.011 601.498,648.882C601.502,649.859 601.748,650.769 602.237,651.613C602.518,651.976 602.8,652.343 603.084,652.706C603.7,653.318 604.412,653.759 605.228,654.027C605.123,655.347 605.032,656.668 604.963,657.992C604.963,658.007 604.983,658.011 604.987,657.995C605.248,656.732 605.498,655.464 605.752,654.197C607.003,654.61 608.579,654.289 609.682,653.644C611.127,652.8 612.237,651.134 612.268,649.422C612.286,649.265 612.297,649.107 612.305,648.95C612.36,648.722 612.418,648.496 612.479,648.269C612.615,647.745 612.701,647.202 612.83,646.675C613.011,645.941 613.225,645.21 613.42,644.48C613.694,643.456 613.968,642.433 614.24,641.406C614.682,639.757 615.108,638.101 615.541,636.445C616.382,633.199 617.189,629.941 618.026,626.691C618.686,624.13 619.355,621.567 620.031,619.007C620.084,618.845 620.137,618.681 620.189,618.519C621.084,615.753 622.014,613 622.984,610.262C623.018,610.188 623.051,610.115 623.084,610.042C623.787,608.503 624.526,606.968 625.287,605.46C625.776,604.492 626.268,603.523 626.757,602.554C626.916,602.238 627.076,601.925 627.233,601.609C627.498,601.089 627.733,600.554 627.983,600.027C628.155,599.679 628.338,599.335 628.533,599.003C628.807,598.464 629.026,597.906 629.182,597.327C629.176,597.327 629.171,597.326 629.166,597.326C629.493,596.149 629.374,594.862 628.749,593.744C629.434,592.453 630.137,591.171 630.838,589.894C632.209,587.402 633.557,584.898 635.061,582.484C635.066,582.473 635.06,582.465 635.051,582.465C635.047,582.465 635.043,582.467 635.041,582.472" style="fill-rule:nonzero;"/>
        <path d="M919.024,518.212C919.037,518.222 919.05,518.232 919.063,518.242C919.046,518.229 919.03,518.216 919.014,518.204C919.017,518.207 919.021,518.21 919.024,518.212M996.74,682.256C996.716,682.086 996.693,681.915 996.669,681.744C996.692,681.915 996.716,682.086 996.74,682.256M996.817,682.822C996.804,682.724 996.791,682.626 996.778,682.527C996.765,682.438 996.753,682.347 996.74,682.256C996.765,682.445 996.791,682.633 996.817,682.822M1005.57,717.835C1005.58,717.821 1005.59,717.808 1005.59,717.795C1005.59,717.808 1005.58,717.821 1005.57,717.835M978.008,579.78C978.163,580.144 978.316,580.507 978.47,580.873C978.316,580.508 978.162,580.144 978.008,579.78M922.354,520.79C922.421,520.842 922.488,520.894 922.556,520.947C922.488,520.895 922.421,520.842 922.354,520.79M911.419,512.541C912.673,513.709 913.958,514.854 915.095,516.147C915.899,517.061 916.642,518.025 917.392,518.99C919.341,521.498 921.399,523.908 923.595,526.201C925.79,528.49 927.892,530.811 929.837,533.322C931.904,535.989 934.065,538.575 936.174,541.207C937.466,542.968 938.565,544.831 939.739,546.674C941.153,548.897 942.782,550.979 944.45,553.014C947.278,556.47 950.152,559.89 952.926,563.393C954.703,565.796 956.337,568.281 957.857,570.854C959.326,573.327 960.793,575.817 961.995,578.432C963.022,581.06 964.052,583.705 964.849,586.412C965.267,587.838 965.669,589.248 966.192,590.643C966.935,592.604 967.845,594.506 968.743,596.4C970.153,599.377 971.724,602.287 973.267,605.193C974.04,606.65 974.86,608.084 975.603,609.557C976.212,610.772 976.774,612.011 977.329,613.252C977.624,614.027 977.901,614.809 978.216,615.576C978.935,617.326 979.704,619.041 980.489,620.764C981.608,623.204 982.768,625.629 983.867,628.075C984.77,630.228 985.691,632.369 986.622,634.51C987.495,636.512 988.405,638.498 989.288,640.496C990.434,643.422 991.391,646.426 992.06,649.502C992.698,652.449 993.124,655.45 993.547,658.439C993.839,660.748 994.087,663.061 994.458,665.361C994.798,667.468 995.185,669.561 995.496,671.669C995.947,675.287 996.298,678.915 996.778,682.527C997.125,684.944 997.562,687.32 998.196,689.69C998.923,692.389 999.681,695.084 1000.5,697.756C1001.97,702.493 1004.21,707.014 1004.92,711.966C1005.08,713.399 1005.03,714.805 1004.85,716.231C1004.53,718.27 1004.22,720.315 1003.84,722.342C1003.84,722.361 1003.86,722.365 1003.86,722.35C1004.29,721.029 1004.77,719.74 1005.31,718.463C1005.29,718.494 1005.28,718.525 1005.27,718.557C1005.37,718.316 1005.47,718.075 1005.57,717.835C1005.57,717.85 1005.56,717.865 1005.55,717.88C1006.27,716.199 1006.87,714.525 1007.15,712.717C1007.38,711.252 1007.24,709.838 1007.1,708.369C1006.91,706.318 1006.69,704.279 1006.41,702.24C1006.14,700.287 1005.8,698.347 1005.52,696.399C1005.25,694.053 1005.08,691.69 1004.89,689.334C1004.72,687.197 1004.54,685.076 1004.68,682.932C1004.83,680.721 1005.15,678.518 1005.4,676.315C1005.67,673.955 1005.79,671.619 1005.8,669.244C1005.81,664.615 1005.42,660.025 1005.09,655.412C1004.69,649.842 1003.9,644.24 1002.63,638.799C1002.06,636.322 1001.35,633.893 1000.56,631.475C999.821,629.19 999.114,626.893 998.349,624.619C996.599,619.447 994.778,614.272 992.423,609.338C991.966,608.385 991.415,607.475 990.939,606.533C990.341,605.358 989.833,604.135 989.239,602.959C988.079,600.658 986.903,598.369 985.704,596.092C983.435,591.783 981.493,587.315 979.442,582.9C978.91,581.761 978.378,580.625 977.878,579.472C976.925,577.221 975.96,574.976 974.896,572.779C973.794,570.506 972.509,568.361 971.118,566.256C968.114,561.713 964.482,557.584 960.595,553.783C957.087,550.354 953.345,547.174 949.849,543.729C948.149,542.057 946.501,540.33 944.81,538.647C943.064,536.912 941.149,535.342 939.274,533.744C936.509,531.389 933.821,528.865 930.837,526.783C927.97,524.779 925.06,522.85 922.274,520.729L922.34,520.78C921.249,519.933 920.157,519.086 919.063,518.242C919.1,518.272 919.137,518.301 919.173,518.33C919.123,518.291 919.074,518.251 919.024,518.212C919.013,518.203 919.001,518.194 918.989,518.186C918.998,518.191 919.006,518.198 919.014,518.204C918.039,517.434 917.089,516.635 916.118,515.858C914.622,514.65 913.036,513.588 911.435,512.522C911.433,512.52 911.43,512.519 911.428,512.519C911.418,512.519 911.41,512.531 911.419,512.541" style="fill-rule:nonzero;"/>
        <path d="M927.187,519.508C927.291,519.589 927.394,519.67 927.497,519.752C927.393,519.671 927.29,519.59 927.187,519.508M917.145,512.033C916.753,512.063 916.378,512.14 916.033,512.272C915.932,512.254 915.826,512.244 915.712,512.244C915.208,512.244 914.716,512.447 914.36,512.806C913.787,513.38 913.624,514.374 914.019,515.091C914.016,515.096 914.012,515.102 914.009,515.107C913.799,515.467 913.666,515.846 913.608,516.247C912.115,514.869 910.596,513.517 909.079,512.166C909.067,512.154 909.048,512.174 909.06,512.185C910.573,513.61 912.091,515.035 913.583,516.486C913.578,516.56 913.575,516.634 913.575,516.709C913.575,517.603 913.942,518.291 914.505,518.955C914.849,519.361 915.267,519.693 915.657,520.056C916.052,520.424 916.438,520.791 916.829,521.162C917.583,521.881 918.337,522.595 919.103,523.306C920.158,524.287 921.279,525.256 922.466,526.114C923.045,526.785 923.649,527.425 924.26,528.073C924.502,528.521 925.27,528.252 925.199,527.717C926.009,527.923 926.888,527.716 927.509,527.095C928.315,526.289 928.383,525.149 927.886,524.222C927.938,524.177 927.989,524.131 928.036,524.084C928.868,523.248 929.126,521.802 928.462,520.779C928.061,520.169 927.615,519.759 927.008,519.365C925.738,518.346 924.52,517.263 923.294,516.189C922.728,515.693 922.161,515.197 921.591,514.705C921.177,514.353 920.763,514.002 920.345,513.65C919.464,512.9 918.562,512.026 917.338,512.026C917.274,512.026 917.21,512.028 917.145,512.033" style="fill-rule:nonzero;"/>
        <path d="M911.793,520.024C911.795,520.025 911.796,520.026 911.797,520.027C911.796,520.026 911.794,520.025 911.793,520.024M911.552,519.837C911.631,519.893 911.712,519.947 911.793,520C911.789,520.005 911.785,520.009 911.78,520.014C911.704,519.955 911.628,519.896 911.552,519.837M913.196,508.797C912.46,509.228 911.874,509.892 911.538,510.671C910.905,511.337 910.434,512.155 910.188,513.047C910.051,513.547 909.99,514.04 909.995,514.524C909.534,514.304 909.074,514.083 908.614,513.859C908.602,513.852 908.59,513.871 908.602,513.879C909.067,514.118 909.531,514.358 909.996,514.598C909.997,514.641 909.999,514.684 910.001,514.726C909.513,515.933 909.576,517.377 910.266,518.496C910.526,518.917 910.839,519.261 911.189,519.557C911.105,519.491 911.02,519.425 910.934,519.359C911.606,520.012 912.387,520.496 913.133,521.047C913.711,521.473 914.329,521.836 914.934,522.223C916.083,522.957 917.196,523.75 918.29,524.566C919.629,525.566 920.977,526.555 922.344,527.516C922.954,527.945 923.59,528.332 924.215,528.738C924.68,529.039 925.129,529.356 925.61,529.625C926.044,529.869 926.56,530.072 927.088,530.207C927.341,530.31 927.596,530.408 927.852,530.508C928.68,530.731 929.508,530.731 930.336,530.508C930.958,530.336 931.536,530.034 932.033,529.633C932.63,529.985 933.225,530.342 933.817,530.699C936.088,532.065 938.255,533.576 940.398,535.13C943.847,537.828 947.109,540.728 950.309,543.715C953.633,546.82 956.649,550.215 959.485,553.77C959.497,553.781 959.512,553.766 959.508,553.754C958.489,552.149 957.469,550.547 956.446,548.945C955.485,547.441 954.434,546.008 953.403,544.555C952.418,543.168 951.325,541.863 950.274,540.531C949.262,539.254 948.196,538.012 947.133,536.774C944.879,534.149 942.446,531.734 939.817,529.488C937.796,527.761 935.7,526.095 933.542,524.53C933.367,523.962 933.092,523.416 932.717,522.996C932.525,522.688 932.291,522.401 932.012,522.145C930.922,521.141 929.786,520.188 928.7,519.172C927.684,518.223 926.668,517.274 925.657,516.32C924.797,515.512 923.954,514.688 923.106,513.871C921.946,512.754 920.809,511.594 919.571,510.57C919.161,510.163 918.706,509.829 918.209,509.568C917.455,508.716 916.332,508.263 915.205,508.263C914.508,508.263 913.809,508.437 913.196,508.797" style="fill-rule:nonzero;"/>
        <path d="M740.02,779.014C739.511,779.44 739.031,779.897 738.559,780.362C737.372,781.534 736.203,782.692 734.901,783.74C734.343,784.163 733.792,784.59 733.266,785.053C732.61,785.623 732.149,786.409 731.829,787.202C731.598,787.772 731.54,788.334 731.457,788.948C731.293,790.225 731.665,791.592 732.067,792.795C732.497,794.084 733.008,795.385 733.692,796.565C734.356,797.713 735.192,798.76 736.04,799.776C736.758,800.639 737.55,801.397 738.434,802.088C739.579,802.987 740.735,803.725 742.168,804.092C743.117,804.334 744.156,804.342 745.132,804.323C745.793,804.311 746.457,804.315 747.117,804.315C747.727,804.315 748.333,804.315 748.942,804.303C749.52,804.291 750.093,804.268 750.672,804.241C750.989,804.225 751.3,804.201 751.614,804.166C752.571,804.061 753.136,803.987 753.997,803.561C754.852,803.135 755.5,802.178 755.75,801.28C756.035,800.241 755.833,799.287 755.364,798.342C754.563,796.733 752.692,796.311 751.063,796.389C750.494,796.415 749.924,796.485 749.358,796.564C749.242,796.574 749.127,796.579 749.011,796.582C748.79,796.579 748.571,796.576 748.352,796.575C748.271,796.571 748.193,796.567 748.114,796.561C747.607,796.531 747.095,796.511 746.587,796.47C746.083,796.377 745.577,796.299 745.079,796.178C744.355,796 743.65,795.709 742.957,795.427C742.769,795.343 742.581,795.257 742.395,795.168C742.353,795.139 742.314,795.11 742.273,795.08C740.978,793.986 739.885,792.72 738.829,791.407C738.847,791.181 738.871,790.956 738.895,790.733C739.102,789.484 739.505,788.33 739.989,787.151C740.27,786.471 740.559,785.795 740.79,785.096C740.88,784.821 740.965,784.542 741.049,784.265C741.617,783.426 742.159,782.57 742.704,781.713C743.098,781.096 743.489,780.502 743.708,779.795C743.915,779.119 743.399,778.159 742.684,778.022C742.516,777.991 742.358,777.975 742.206,777.975C741.352,777.975 740.703,778.444 740.02,779.014" style="fill-rule:nonzero;"/>
        <path d="M705.431,861.533C705.401,861.604 705.37,861.676 705.34,861.748C705.335,861.76 705.33,861.772 705.325,861.784C705.36,861.7 705.395,861.617 705.431,861.533M726.314,809.473C726.329,809.582 726.343,809.689 726.358,809.798C726.343,809.689 726.328,809.582 726.314,809.473M723.697,776.802C722.556,782.696 721.572,788.61 720.642,794.54C720.216,797.247 719.704,799.942 719.255,802.645C718.813,805.3 718.473,807.962 718.123,810.629C717.462,814.804 716.803,818.981 715.869,823.106C714.861,827.567 713.962,832.052 712.962,836.516C712.525,838.477 711.935,840.399 711.353,842.325C710.685,844.552 710.064,846.79 709.439,849.032C708.245,853.326 706.926,857.646 705.314,861.806C704.67,863.256 703.957,864.675 703.372,866.145C702.786,867.63 702.263,869.137 701.755,870.649C700.646,873.95 699.814,877.305 698.872,880.653C698.869,880.665 698.884,880.677 698.892,880.665C700.579,878.673 702.435,876.833 704.224,874.934C705.908,873.153 707.56,871.341 709.244,869.563C712.693,865.927 715.411,861.595 717.978,857.309C720.716,852.727 723.318,848.009 724.665,842.809C726.029,837.544 726.951,832.204 727.349,826.782C727.54,824.223 727.634,821.677 727.568,819.11C727.49,816.251 726.919,813.422 726.466,810.605C726.463,810.581 726.46,810.557 726.456,810.534C725.963,806.441 725.282,802.382 724.724,798.302C723.875,791.144 723.786,784.002 723.72,776.805C723.72,776.797 723.713,776.792 723.706,776.792C723.702,776.792 723.697,776.795 723.697,776.802" style="fill-rule:nonzero;"/>
        <path d="M846.486,902.085C846.49,902.108 846.494,902.133 846.498,902.158L846.486,902.085ZM843.802,817.663C844.15,821.761 844.549,825.839 845.166,829.909C845.694,833.384 846.188,836.862 846.675,840.344C846.976,842.692 847.257,845.038 847.365,847.405C847.478,849.933 847.498,852.46 847.537,854.987C847.576,857.433 847.572,859.882 847.611,862.327C847.647,864.573 847.673,866.787 847.457,869.02C846.507,874.503 844.547,879.75 843.767,885.276C843.341,888.331 843.088,891.425 843.146,894.511C843.181,896.37 843.381,898.249 843.916,900.034C844.509,902.019 845.814,903.644 847.162,905.171C847.17,905.179 847.185,905.171 847.181,905.159C846.9,904.183 846.669,903.206 846.506,902.205C846.393,901.205 846.406,900.231 846.504,899.227C846.888,896.741 847.675,894.314 848.466,891.933C849.244,889.597 850.009,887.257 850.81,884.929C852.361,880.409 854.232,875.917 855.357,871.269C856.549,866.351 856.002,861.034 855.431,856.065C855.119,853.355 854.775,850.62 854.181,847.956C853.65,845.565 852.99,843.21 852.271,840.87C851.17,837.292 849.877,833.772 848.521,830.284C846.892,826.097 845.384,821.87 843.826,817.659C843.824,817.653 843.818,817.65 843.813,817.65C843.806,817.65 843.8,817.654 843.802,817.663" style="fill-rule:nonzero;"/>
        <path d="M692.939,946.358C692.568,946.46 692.435,946.803 692.486,947.155C692.565,947.712 692.645,948.273 692.722,948.832C692.741,948.979 692.761,949.128 692.78,949.276C691.776,949.99 691.14,951.491 691.193,952.647C691.232,953.51 691.447,954.35 691.935,955.073C692.156,955.4 692.372,955.69 692.548,956.03C692.632,956.246 692.723,956.46 692.844,956.655C692.977,956.867 693.099,957.033 693.228,957.178C693.175,957.701 693.213,958.144 693.361,958.827C693.469,959.319 693.669,959.792 693.935,960.225C694.512,961.167 695.271,961.842 696.212,962.413C696.698,962.705 697.197,962.894 697.704,963.056C698.24,963.527 698.798,963.976 699.352,964.42C699.66,964.849 699.997,965.246 700.493,965.53C700.742,965.672 700.998,965.788 701.261,965.876C702.289,966.629 703.333,967.363 704.361,968.119C704.82,968.5 705.264,968.892 705.676,969.321C705.841,969.618 705.982,969.923 706.161,970.213C706.908,971.42 707.982,972.311 709.243,972.917C710.872,973.698 712.533,974.284 714.283,974.706C715.665,975.034 717.029,975.44 718.419,975.737C719.861,976.045 721.325,976.213 722.783,976.417C724.185,976.612 725.579,976.838 726.969,977.1C728.497,977.381 730.036,977.581 731.568,977.842C733.009,978.088 734.459,978.256 735.9,978.475C735.99,978.489 736.079,978.503 736.169,978.517C738.266,979.034 740.379,979.477 742.486,979.975C745.536,980.702 748.607,981.374 751.716,981.815C753.447,982.061 755.177,982.327 756.915,982.518C758.454,982.69 759.997,982.803 761.54,982.96C763.669,983.174 765.805,983.249 767.943,983.292C769.094,983.315 770.247,983.346 771.396,983.346C772.334,983.346 773.252,983.267 774.189,983.346C775.275,983.497 776.361,983.645 777.45,983.78C778.235,983.879 779.025,983.954 779.812,984.046C781.653,984.328 783.492,984.582 785.348,984.749C786.079,984.815 786.814,984.796 787.548,984.792C788.372,984.788 789.193,984.858 790.012,984.909C791.658,985.01 793.337,985.061 794.978,984.975C796.141,984.913 797.318,984.881 798.443,984.549C799.277,984.305 800.048,983.863 800.834,983.485C801.603,983.199 802.381,982.941 803.165,982.701C805.004,982.71 806.844,982.683 808.68,982.647C809.31,983.108 810.077,983.377 810.896,983.346C811.865,983.311 812.837,983.057 813.779,982.842C813.844,982.828 813.911,982.812 813.978,982.797C815.308,982.901 816.632,983.06 817.958,983.202C819.434,983.358 820.954,983.389 822.434,983.374C824.036,983.358 825.641,983.35 827.236,983.221C829.923,983.014 832.594,982.663 835.24,982.151C836.369,981.936 837.49,981.686 838.607,981.432C839.111,981.315 839.611,981.194 840.114,981.077C840.934,980.889 841.708,980.756 842.447,980.288C843.611,979.542 844.369,978.346 844.369,976.936C844.365,976.237 844.189,975.585 843.837,974.979C843.494,974.393 843.029,973.932 842.447,973.585C842.087,973.432 841.732,973.28 841.372,973.131C840.934,973.065 840.494,973.006 840.055,972.963C839.568,972.913 839.033,972.999 838.54,973.026C837.927,973.057 837.309,973.085 836.697,973.116C835.494,973.167 834.291,973.182 833.087,973.202C831.872,973.221 830.657,973.288 829.447,973.374C828.219,973.46 827.005,973.647 825.779,973.753C823.733,973.93 821.694,974.142 819.655,974.397C818.555,974.317 817.454,974.381 816.341,974.432C815.497,974.471 814.661,974.542 813.822,974.616C812.189,974.753 810.564,974.952 808.934,975.135C807.31,975.319 805.696,975.557 804.084,975.817C803.855,975.807 803.626,975.8 803.396,975.795C802.559,975.784 801.728,975.768 800.891,975.811C800.216,975.846 799.544,975.924 798.869,975.971C798.118,976.022 797.348,975.948 796.598,975.924C795.822,975.897 795.04,975.889 794.262,975.878C793.693,975.866 793.111,975.831 792.54,975.846C792.179,975.854 791.819,975.903 791.459,975.96C791.122,975.977 790.79,975.962 790.453,975.932C788.746,975.668 787.045,975.391 785.329,975.186C784.49,975.085 783.611,974.936 782.762,974.999C781.982,975.061 781.216,974.96 780.443,974.862C780.736,974.901 781.029,974.94 781.318,974.979C779.464,974.729 777.612,974.501 775.757,974.271C774.77,974.116 773.791,973.913 772.809,973.741C771.552,973.518 770.294,973.311 769.036,973.104C768.059,972.944 767.118,972.663 766.169,972.393C765.677,972.256 765.161,972.19 764.665,972.092C764.075,971.975 763.49,971.862 762.896,971.756C761.766,971.557 760.63,971.409 759.497,971.245C758.24,971.061 757.012,970.725 755.771,970.479C754.115,970.151 752.419,969.987 750.743,969.827C749.796,969.739 748.842,969.756 747.896,969.687C746.44,969.466 744.986,969.266 743.525,969.081C742.344,968.929 741.155,968.899 739.975,968.782C739.055,968.64 738.14,968.484 737.223,968.311C736.02,968.087 734.805,967.914 733.589,967.755C732.605,967.584 731.625,967.37 730.637,967.19C729.591,967.003 728.536,966.874 727.486,966.729C725.45,966.452 723.462,965.975 721.443,965.616C720.38,965.428 719.318,965.256 718.266,965.022C717.368,964.823 716.516,964.452 715.658,964.135C714.654,963.764 713.658,963.374 712.63,963.053C711.904,962.831 711.118,962.725 710.357,962.737C710.236,962.738 710.116,962.742 709.996,962.744C709.93,962.722 709.867,962.701 709.803,962.677C708.454,962.053 707.137,961.357 705.867,960.586C705.695,960.163 705.474,959.756 705.219,959.378C704.873,958.864 704.478,958.38 704.083,957.899C703.914,957.654 703.757,957.402 703.615,957.135C703.505,956.928 703.404,956.713 703.294,956.503C703.044,955.999 702.646,955.53 702.302,955.12C701.841,954.569 701.236,954.026 700.63,953.674C699.841,953.213 698.834,952.936 697.927,952.94C697.599,952.943 697.307,952.968 697.029,953.019C697.022,952.99 697.016,952.962 697.009,952.932C696.868,952.346 696.634,951.776 696.341,951.253C696.052,950.741 695.677,950.35 695.243,949.971C694.858,949.635 694.51,949.325 694.06,949.131C693.961,948.356 693.851,947.584 693.74,946.811C693.697,946.517 693.381,946.337 693.098,946.337C693.043,946.337 692.988,946.344 692.939,946.358" style="fill-rule:nonzero;"/>
        <path d="M691.757,941.232C689.987,942.267 688.851,944.224 688.862,946.283C688.866,947.15 689.011,947.986 689.277,948.806C689.476,949.412 689.827,950.107 690.089,950.728C690.269,951.15 690.472,951.576 690.71,951.966C691.527,953.295 692.46,954.517 693.448,955.728C694.115,956.542 694.84,957.304 695.575,958.057C695.613,958.294 695.664,958.53 695.726,958.767C695.941,959.572 696.468,960.56 697.081,961.134C697.239,961.282 697.399,961.427 697.56,961.572C697.918,962.253 698.267,962.938 698.603,963.63C698.61,963.66 698.617,963.69 698.623,963.719C698.639,963.824 698.654,963.928 698.671,964.033C698.859,964.705 699.198,965.283 699.687,965.779C700.179,966.267 700.761,966.607 701.429,966.794C702.135,966.989 702.824,966.977 703.461,966.802C703.811,967.14 704.166,967.474 704.519,967.81C704.827,968.107 705.132,968.404 705.441,968.693C705.577,968.818 705.718,968.939 705.859,969.056C706.183,969.322 706.515,969.58 706.859,969.822C707.288,970.134 707.812,970.283 708.312,970.459C709.327,970.806 710.589,970.568 711.491,970.041C712.749,969.306 713.538,967.931 713.538,966.474C713.538,965.384 713.101,964.326 712.327,963.552C711.636,962.763 710.628,962.181 709.718,961.654C709.06,961.27 708.419,960.872 707.796,960.438C706.754,959.558 705.841,958.591 704.977,957.533C704.486,956.868 703.996,956.203 703.542,955.509C703.063,954.773 702.647,954.035 702.275,953.256C701.67,951.533 701.163,949.798 700.834,948.002C700.745,947.253 700.651,946.504 700.532,945.761C700.501,945.411 700.44,945.064 700.347,944.728C699.808,942.759 698.23,941.185 696.265,940.642C695.76,940.503 695.24,940.435 694.721,940.435C693.687,940.435 692.657,940.707 691.757,941.232" style="fill-rule:nonzero;"/>
    </g>
</svg>
